<?xml version="1.0" encoding="utf-8"?>
<svg xmlns="http://www.w3.org/2000/svg" xmlns:xlink="http://www.w3.org/1999/xlink" width="600" height="450" viewBox="0 0 2400 1800">
<defs>
  <clipPath id="clip910">
    <rect x="300" y="180" width="1981" height="1396"/>
  </clipPath>
</defs>
<defs>
  <clipPath id="clip911">
    <rect x="0" y="0" width="2400" height="1800"/>
  </clipPath>
</defs>
<path clip-path="url(#clip911)" d="M0 1800 L2400 1800 L2400 -1400 L0 -1400  Z" fill="#ffffff" fill-rule="evenodd" fill-opacity="1"/>
<polyline clip-path="url(#clip911)" style="stroke:#000000; stroke-linecap:round; stroke-linejoin:round; stroke-width:3.6; stroke-opacity:1; fill:none" points="2280,1575 2243.67,1575 "/>
<polyline clip-path="url(#clip911)" style="stroke:#000000; stroke-linecap:round; stroke-linejoin:round; stroke-width:3.6; stroke-opacity:1; fill:none" points="2280,1226.25 2243.67,1226.25 "/>
<polyline clip-path="url(#clip911)" style="stroke:#000000; stroke-linecap:round; stroke-linejoin:round; stroke-width:3.6; stroke-opacity:1; fill:none" points="2280,877.5 2243.67,877.5 "/>
<polyline clip-path="url(#clip911)" style="stroke:#000000; stroke-linecap:round; stroke-linejoin:round; stroke-width:3.6; stroke-opacity:1; fill:none" points="2280,528.75 2243.67,528.75 "/>
<polyline clip-path="url(#clip911)" style="stroke:#000000; stroke-linecap:round; stroke-linejoin:round; stroke-width:3.6; stroke-opacity:1; fill:none" points="2280,180 2243.67,180 "/>
<polyline clip-path="url(#clip911)" style="stroke:#000000; stroke-linecap:round; stroke-linejoin:round; stroke-width:3.6; stroke-opacity:1; fill:none" points="300,1575 336.331,1575 "/>
<polyline clip-path="url(#clip911)" style="stroke:#000000; stroke-linecap:round; stroke-linejoin:round; stroke-width:3.6; stroke-opacity:1; fill:none" points="300,1226.25 336.331,1226.25 "/>
<polyline clip-path="url(#clip911)" style="stroke:#000000; stroke-linecap:round; stroke-linejoin:round; stroke-width:3.6; stroke-opacity:1; fill:none" points="300,877.5 336.331,877.5 "/>
<polyline clip-path="url(#clip911)" style="stroke:#000000; stroke-linecap:round; stroke-linejoin:round; stroke-width:3.6; stroke-opacity:1; fill:none" points="300,528.75 336.331,528.75 "/>
<polyline clip-path="url(#clip911)" style="stroke:#000000; stroke-linecap:round; stroke-linejoin:round; stroke-width:3.6; stroke-opacity:1; fill:none" points="300,180 336.331,180 "/>
<polyline clip-path="url(#clip911)" style="stroke:#000000; stroke-linecap:round; stroke-linejoin:round; stroke-width:3.6; stroke-opacity:1; fill:none" points="300,180 300,216.331 "/>
<polyline clip-path="url(#clip911)" style="stroke:#000000; stroke-linecap:round; stroke-linejoin:round; stroke-width:3.6; stroke-opacity:1; fill:none" points="795,180 795,216.331 "/>
<polyline clip-path="url(#clip911)" style="stroke:#000000; stroke-linecap:round; stroke-linejoin:round; stroke-width:3.6; stroke-opacity:1; fill:none" points="1290,180 1290,216.331 "/>
<polyline clip-path="url(#clip911)" style="stroke:#000000; stroke-linecap:round; stroke-linejoin:round; stroke-width:3.6; stroke-opacity:1; fill:none" points="1785,180 1785,216.331 "/>
<polyline clip-path="url(#clip911)" style="stroke:#000000; stroke-linecap:round; stroke-linejoin:round; stroke-width:3.6; stroke-opacity:1; fill:none" points="2280,180 2280,216.331 "/>
<polyline clip-path="url(#clip911)" style="stroke:#000000; stroke-linecap:round; stroke-linejoin:round; stroke-width:3.6; stroke-opacity:1; fill:none" points="300,1575 300,1538.67 "/>
<polyline clip-path="url(#clip911)" style="stroke:#000000; stroke-linecap:round; stroke-linejoin:round; stroke-width:3.6; stroke-opacity:1; fill:none" points="795,1575 795,1538.67 "/>
<polyline clip-path="url(#clip911)" style="stroke:#000000; stroke-linecap:round; stroke-linejoin:round; stroke-width:3.6; stroke-opacity:1; fill:none" points="1290,1575 1290,1538.67 "/>
<polyline clip-path="url(#clip911)" style="stroke:#000000; stroke-linecap:round; stroke-linejoin:round; stroke-width:3.6; stroke-opacity:1; fill:none" points="1785,1575 1785,1538.67 "/>
<polyline clip-path="url(#clip911)" style="stroke:#000000; stroke-linecap:round; stroke-linejoin:round; stroke-width:3.6; stroke-opacity:1; fill:none" points="2280,1575 2280,1538.67 "/>
<polyline clip-path="url(#clip911)" style="stroke:#000000; stroke-linecap:round; stroke-linejoin:round; stroke-width:3.6; stroke-opacity:1; fill:none" points="2280,1505.25 2261.83,1505.25 "/>
<polyline clip-path="url(#clip911)" style="stroke:#000000; stroke-linecap:round; stroke-linejoin:round; stroke-width:3.6; stroke-opacity:1; fill:none" points="2280,1435.5 2261.83,1435.5 "/>
<polyline clip-path="url(#clip911)" style="stroke:#000000; stroke-linecap:round; stroke-linejoin:round; stroke-width:3.6; stroke-opacity:1; fill:none" points="2280,1365.75 2261.83,1365.75 "/>
<polyline clip-path="url(#clip911)" style="stroke:#000000; stroke-linecap:round; stroke-linejoin:round; stroke-width:3.6; stroke-opacity:1; fill:none" points="2280,1296 2261.83,1296 "/>
<polyline clip-path="url(#clip911)" style="stroke:#000000; stroke-linecap:round; stroke-linejoin:round; stroke-width:3.6; stroke-opacity:1; fill:none" points="2280,1156.5 2261.83,1156.5 "/>
<polyline clip-path="url(#clip911)" style="stroke:#000000; stroke-linecap:round; stroke-linejoin:round; stroke-width:3.6; stroke-opacity:1; fill:none" points="2280,1086.75 2261.83,1086.75 "/>
<polyline clip-path="url(#clip911)" style="stroke:#000000; stroke-linecap:round; stroke-linejoin:round; stroke-width:3.6; stroke-opacity:1; fill:none" points="2280,1017 2261.83,1017 "/>
<polyline clip-path="url(#clip911)" style="stroke:#000000; stroke-linecap:round; stroke-linejoin:round; stroke-width:3.6; stroke-opacity:1; fill:none" points="2280,947.25 2261.83,947.25 "/>
<polyline clip-path="url(#clip911)" style="stroke:#000000; stroke-linecap:round; stroke-linejoin:round; stroke-width:3.6; stroke-opacity:1; fill:none" points="2280,807.75 2261.83,807.75 "/>
<polyline clip-path="url(#clip911)" style="stroke:#000000; stroke-linecap:round; stroke-linejoin:round; stroke-width:3.6; stroke-opacity:1; fill:none" points="2280,738 2261.83,738 "/>
<polyline clip-path="url(#clip911)" style="stroke:#000000; stroke-linecap:round; stroke-linejoin:round; stroke-width:3.6; stroke-opacity:1; fill:none" points="2280,668.25 2261.83,668.25 "/>
<polyline clip-path="url(#clip911)" style="stroke:#000000; stroke-linecap:round; stroke-linejoin:round; stroke-width:3.6; stroke-opacity:1; fill:none" points="2280,598.5 2261.83,598.5 "/>
<polyline clip-path="url(#clip911)" style="stroke:#000000; stroke-linecap:round; stroke-linejoin:round; stroke-width:3.6; stroke-opacity:1; fill:none" points="2280,459 2261.83,459 "/>
<polyline clip-path="url(#clip911)" style="stroke:#000000; stroke-linecap:round; stroke-linejoin:round; stroke-width:3.6; stroke-opacity:1; fill:none" points="2280,389.25 2261.83,389.25 "/>
<polyline clip-path="url(#clip911)" style="stroke:#000000; stroke-linecap:round; stroke-linejoin:round; stroke-width:3.6; stroke-opacity:1; fill:none" points="2280,319.5 2261.83,319.5 "/>
<polyline clip-path="url(#clip911)" style="stroke:#000000; stroke-linecap:round; stroke-linejoin:round; stroke-width:3.6; stroke-opacity:1; fill:none" points="2280,249.75 2261.83,249.75 "/>
<polyline clip-path="url(#clip911)" style="stroke:#000000; stroke-linecap:round; stroke-linejoin:round; stroke-width:3.6; stroke-opacity:1; fill:none" points="300,1505.25 318.166,1505.25 "/>
<polyline clip-path="url(#clip911)" style="stroke:#000000; stroke-linecap:round; stroke-linejoin:round; stroke-width:3.6; stroke-opacity:1; fill:none" points="300,1435.5 318.166,1435.5 "/>
<polyline clip-path="url(#clip911)" style="stroke:#000000; stroke-linecap:round; stroke-linejoin:round; stroke-width:3.6; stroke-opacity:1; fill:none" points="300,1365.75 318.166,1365.75 "/>
<polyline clip-path="url(#clip911)" style="stroke:#000000; stroke-linecap:round; stroke-linejoin:round; stroke-width:3.6; stroke-opacity:1; fill:none" points="300,1296 318.166,1296 "/>
<polyline clip-path="url(#clip911)" style="stroke:#000000; stroke-linecap:round; stroke-linejoin:round; stroke-width:3.6; stroke-opacity:1; fill:none" points="300,1156.5 318.166,1156.5 "/>
<polyline clip-path="url(#clip911)" style="stroke:#000000; stroke-linecap:round; stroke-linejoin:round; stroke-width:3.6; stroke-opacity:1; fill:none" points="300,1086.75 318.166,1086.75 "/>
<polyline clip-path="url(#clip911)" style="stroke:#000000; stroke-linecap:round; stroke-linejoin:round; stroke-width:3.6; stroke-opacity:1; fill:none" points="300,1017 318.166,1017 "/>
<polyline clip-path="url(#clip911)" style="stroke:#000000; stroke-linecap:round; stroke-linejoin:round; stroke-width:3.6; stroke-opacity:1; fill:none" points="300,947.25 318.166,947.25 "/>
<polyline clip-path="url(#clip911)" style="stroke:#000000; stroke-linecap:round; stroke-linejoin:round; stroke-width:3.6; stroke-opacity:1; fill:none" points="300,807.75 318.166,807.75 "/>
<polyline clip-path="url(#clip911)" style="stroke:#000000; stroke-linecap:round; stroke-linejoin:round; stroke-width:3.6; stroke-opacity:1; fill:none" points="300,738 318.166,738 "/>
<polyline clip-path="url(#clip911)" style="stroke:#000000; stroke-linecap:round; stroke-linejoin:round; stroke-width:3.6; stroke-opacity:1; fill:none" points="300,668.25 318.166,668.25 "/>
<polyline clip-path="url(#clip911)" style="stroke:#000000; stroke-linecap:round; stroke-linejoin:round; stroke-width:3.6; stroke-opacity:1; fill:none" points="300,598.5 318.166,598.5 "/>
<polyline clip-path="url(#clip911)" style="stroke:#000000; stroke-linecap:round; stroke-linejoin:round; stroke-width:3.6; stroke-opacity:1; fill:none" points="300,459 318.166,459 "/>
<polyline clip-path="url(#clip911)" style="stroke:#000000; stroke-linecap:round; stroke-linejoin:round; stroke-width:3.6; stroke-opacity:1; fill:none" points="300,389.25 318.166,389.25 "/>
<polyline clip-path="url(#clip911)" style="stroke:#000000; stroke-linecap:round; stroke-linejoin:round; stroke-width:3.6; stroke-opacity:1; fill:none" points="300,319.5 318.166,319.5 "/>
<polyline clip-path="url(#clip911)" style="stroke:#000000; stroke-linecap:round; stroke-linejoin:round; stroke-width:3.6; stroke-opacity:1; fill:none" points="300,249.75 318.166,249.75 "/>
<polyline clip-path="url(#clip911)" style="stroke:#000000; stroke-linecap:round; stroke-linejoin:round; stroke-width:3.6; stroke-opacity:1; fill:none" points="399,180 399,198.166 "/>
<polyline clip-path="url(#clip911)" style="stroke:#000000; stroke-linecap:round; stroke-linejoin:round; stroke-width:3.6; stroke-opacity:1; fill:none" points="498,180 498,198.166 "/>
<polyline clip-path="url(#clip911)" style="stroke:#000000; stroke-linecap:round; stroke-linejoin:round; stroke-width:3.6; stroke-opacity:1; fill:none" points="597,180 597,198.166 "/>
<polyline clip-path="url(#clip911)" style="stroke:#000000; stroke-linecap:round; stroke-linejoin:round; stroke-width:3.6; stroke-opacity:1; fill:none" points="696,180 696,198.166 "/>
<polyline clip-path="url(#clip911)" style="stroke:#000000; stroke-linecap:round; stroke-linejoin:round; stroke-width:3.6; stroke-opacity:1; fill:none" points="894,180 894,198.166 "/>
<polyline clip-path="url(#clip911)" style="stroke:#000000; stroke-linecap:round; stroke-linejoin:round; stroke-width:3.6; stroke-opacity:1; fill:none" points="993,180 993,198.166 "/>
<polyline clip-path="url(#clip911)" style="stroke:#000000; stroke-linecap:round; stroke-linejoin:round; stroke-width:3.6; stroke-opacity:1; fill:none" points="1092,180 1092,198.166 "/>
<polyline clip-path="url(#clip911)" style="stroke:#000000; stroke-linecap:round; stroke-linejoin:round; stroke-width:3.6; stroke-opacity:1; fill:none" points="1191,180 1191,198.166 "/>
<polyline clip-path="url(#clip911)" style="stroke:#000000; stroke-linecap:round; stroke-linejoin:round; stroke-width:3.6; stroke-opacity:1; fill:none" points="1389,180 1389,198.166 "/>
<polyline clip-path="url(#clip911)" style="stroke:#000000; stroke-linecap:round; stroke-linejoin:round; stroke-width:3.6; stroke-opacity:1; fill:none" points="1488,180 1488,198.166 "/>
<polyline clip-path="url(#clip911)" style="stroke:#000000; stroke-linecap:round; stroke-linejoin:round; stroke-width:3.6; stroke-opacity:1; fill:none" points="1587,180 1587,198.166 "/>
<polyline clip-path="url(#clip911)" style="stroke:#000000; stroke-linecap:round; stroke-linejoin:round; stroke-width:3.6; stroke-opacity:1; fill:none" points="1686,180 1686,198.166 "/>
<polyline clip-path="url(#clip911)" style="stroke:#000000; stroke-linecap:round; stroke-linejoin:round; stroke-width:3.6; stroke-opacity:1; fill:none" points="1884,180 1884,198.166 "/>
<polyline clip-path="url(#clip911)" style="stroke:#000000; stroke-linecap:round; stroke-linejoin:round; stroke-width:3.6; stroke-opacity:1; fill:none" points="1983,180 1983,198.166 "/>
<polyline clip-path="url(#clip911)" style="stroke:#000000; stroke-linecap:round; stroke-linejoin:round; stroke-width:3.6; stroke-opacity:1; fill:none" points="2082,180 2082,198.166 "/>
<polyline clip-path="url(#clip911)" style="stroke:#000000; stroke-linecap:round; stroke-linejoin:round; stroke-width:3.6; stroke-opacity:1; fill:none" points="2181,180 2181,198.166 "/>
<polyline clip-path="url(#clip911)" style="stroke:#000000; stroke-linecap:round; stroke-linejoin:round; stroke-width:3.6; stroke-opacity:1; fill:none" points="399,1575 399,1556.83 "/>
<polyline clip-path="url(#clip911)" style="stroke:#000000; stroke-linecap:round; stroke-linejoin:round; stroke-width:3.6; stroke-opacity:1; fill:none" points="498,1575 498,1556.83 "/>
<polyline clip-path="url(#clip911)" style="stroke:#000000; stroke-linecap:round; stroke-linejoin:round; stroke-width:3.6; stroke-opacity:1; fill:none" points="597,1575 597,1556.83 "/>
<polyline clip-path="url(#clip911)" style="stroke:#000000; stroke-linecap:round; stroke-linejoin:round; stroke-width:3.6; stroke-opacity:1; fill:none" points="696,1575 696,1556.83 "/>
<polyline clip-path="url(#clip911)" style="stroke:#000000; stroke-linecap:round; stroke-linejoin:round; stroke-width:3.6; stroke-opacity:1; fill:none" points="894,1575 894,1556.83 "/>
<polyline clip-path="url(#clip911)" style="stroke:#000000; stroke-linecap:round; stroke-linejoin:round; stroke-width:3.6; stroke-opacity:1; fill:none" points="993,1575 993,1556.83 "/>
<polyline clip-path="url(#clip911)" style="stroke:#000000; stroke-linecap:round; stroke-linejoin:round; stroke-width:3.6; stroke-opacity:1; fill:none" points="1092,1575 1092,1556.83 "/>
<polyline clip-path="url(#clip911)" style="stroke:#000000; stroke-linecap:round; stroke-linejoin:round; stroke-width:3.6; stroke-opacity:1; fill:none" points="1191,1575 1191,1556.83 "/>
<polyline clip-path="url(#clip911)" style="stroke:#000000; stroke-linecap:round; stroke-linejoin:round; stroke-width:3.6; stroke-opacity:1; fill:none" points="1389,1575 1389,1556.83 "/>
<polyline clip-path="url(#clip911)" style="stroke:#000000; stroke-linecap:round; stroke-linejoin:round; stroke-width:3.6; stroke-opacity:1; fill:none" points="1488,1575 1488,1556.83 "/>
<polyline clip-path="url(#clip911)" style="stroke:#000000; stroke-linecap:round; stroke-linejoin:round; stroke-width:3.6; stroke-opacity:1; fill:none" points="1587,1575 1587,1556.83 "/>
<polyline clip-path="url(#clip911)" style="stroke:#000000; stroke-linecap:round; stroke-linejoin:round; stroke-width:3.6; stroke-opacity:1; fill:none" points="1686,1575 1686,1556.83 "/>
<polyline clip-path="url(#clip911)" style="stroke:#000000; stroke-linecap:round; stroke-linejoin:round; stroke-width:3.6; stroke-opacity:1; fill:none" points="1884,1575 1884,1556.83 "/>
<polyline clip-path="url(#clip911)" style="stroke:#000000; stroke-linecap:round; stroke-linejoin:round; stroke-width:3.6; stroke-opacity:1; fill:none" points="1983,1575 1983,1556.83 "/>
<polyline clip-path="url(#clip911)" style="stroke:#000000; stroke-linecap:round; stroke-linejoin:round; stroke-width:3.6; stroke-opacity:1; fill:none" points="2082,1575 2082,1556.83 "/>
<polyline clip-path="url(#clip911)" style="stroke:#000000; stroke-linecap:round; stroke-linejoin:round; stroke-width:3.6; stroke-opacity:1; fill:none" points="2181,1575 2181,1556.83 "/>
<polyline clip-path="url(#clip911)" style="stroke:#000000; stroke-linecap:round; stroke-linejoin:round; stroke-width:3.6; stroke-opacity:1; fill:none" points="2280,1575 2280,180 "/>
<polyline clip-path="url(#clip911)" style="stroke:#000000; stroke-linecap:round; stroke-linejoin:round; stroke-width:3.6; stroke-opacity:1; fill:none" points="300,1575 300,180 "/>
<polyline clip-path="url(#clip911)" style="stroke:#000000; stroke-linecap:round; stroke-linejoin:round; stroke-width:3.6; stroke-opacity:1; fill:none" points="300,180 2280,180 "/>
<polyline clip-path="url(#clip911)" style="stroke:#000000; stroke-linecap:round; stroke-linejoin:round; stroke-width:3.6; stroke-opacity:1; fill:none" points="300,1575 2280,1575 "/>
<g clip-path="url(#clip911)">
<text style="fill:#000000; fill-opacity:1; font-family:Arial,Helvetica Neue,Helvetica,sans-serif; font-size:60px; text-anchor:start;" transform="rotate(0, 248.074, 1592.22)" x="248.074" y="1592.22">0</text>
</g>
<g clip-path="url(#clip911)">
<text style="fill:#000000; fill-opacity:1; font-family:Arial,Helvetica Neue,Helvetica,sans-serif; font-size:60px; text-anchor:start;" transform="rotate(0, 197.433, 1243.47)" x="197.433" y="1243.47">0.1</text>
</g>
<g clip-path="url(#clip911)">
<text style="fill:#000000; fill-opacity:1; font-family:Arial,Helvetica Neue,Helvetica,sans-serif; font-size:60px; text-anchor:start;" transform="rotate(0, 197.433, 894.721)" x="197.433" y="894.721">0.2</text>
</g>
<g clip-path="url(#clip911)">
<text style="fill:#000000; fill-opacity:1; font-family:Arial,Helvetica Neue,Helvetica,sans-serif; font-size:60px; text-anchor:start;" transform="rotate(0, 197.433, 545.971)" x="197.433" y="545.971">0.3</text>
</g>
<g clip-path="url(#clip911)">
<text style="fill:#000000; fill-opacity:1; font-family:Arial,Helvetica Neue,Helvetica,sans-serif; font-size:60px; text-anchor:start;" transform="rotate(0, 197.433, 197.221)" x="197.433" y="197.221">0.4</text>
</g>
<g clip-path="url(#clip911)">
<text style="fill:#000000; fill-opacity:1; font-family:Arial,Helvetica Neue,Helvetica,sans-serif; font-size:60px; text-anchor:start;" transform="rotate(0, 248.509, 1647.23)" x="248.509" y="1647.23">-</text>
</g>
<g clip-path="url(#clip911)">
<text style="fill:#000000; fill-opacity:1; font-family:Arial,Helvetica Neue,Helvetica,sans-serif; font-size:60px; text-anchor:start;" transform="rotate(0, 283.97, 1647.23)" x="283.97" y="1647.23">20</text>
</g>
<g clip-path="url(#clip911)">
<text style="fill:#000000; fill-opacity:1; font-family:Arial,Helvetica Neue,Helvetica,sans-serif; font-size:60px; text-anchor:start;" transform="rotate(0, 743.509, 1647.23)" x="743.509" y="1647.23">-</text>
</g>
<g clip-path="url(#clip911)">
<text style="fill:#000000; fill-opacity:1; font-family:Arial,Helvetica Neue,Helvetica,sans-serif; font-size:60px; text-anchor:start;" transform="rotate(0, 778.97, 1647.23)" x="778.97" y="1647.23">10</text>
</g>
<g clip-path="url(#clip911)">
<text style="fill:#000000; fill-opacity:1; font-family:Arial,Helvetica Neue,Helvetica,sans-serif; font-size:60px; text-anchor:start;" transform="rotate(0, 1273.12, 1647.23)" x="1273.12" y="1647.23">0</text>
</g>
<g clip-path="url(#clip911)">
<text style="fill:#000000; fill-opacity:1; font-family:Arial,Helvetica Neue,Helvetica,sans-serif; font-size:60px; text-anchor:start;" transform="rotate(0, 1751.24, 1647.23)" x="1751.24" y="1647.23">10</text>
</g>
<g clip-path="url(#clip911)">
<text style="fill:#000000; fill-opacity:1; font-family:Arial,Helvetica Neue,Helvetica,sans-serif; font-size:60px; text-anchor:start;" transform="rotate(0, 2246.24, 1647.23)" x="2246.24" y="1647.23">20</text>
</g>
<g clip-path="url(#clip911)">
<text style="fill:#000000; fill-opacity:1; font-family:Arial,Helvetica Neue,Helvetica,sans-serif; font-size:60px; text-anchor:middle;" transform="rotate(0, 1290, 52.8)" x="1290" y="52.8">JohnsonSU(0.0, 1.0, 0.0, 1.0)</text>
</g>
<g clip-path="url(#clip911)">
<text style="fill:#000000; fill-opacity:1; font-family:Arial,Helvetica Neue,Helvetica,sans-serif; font-size:60px; text-anchor:middle;" transform="rotate(0, 1290, 1769.4)" x="1290" y="1769.4">x</text>
</g>
<g clip-path="url(#clip911)">
<text style="fill:#000000; fill-opacity:1; font-family:Arial,Helvetica Neue,Helvetica,sans-serif; font-size:60px; text-anchor:middle;" transform="rotate(-90, 74.5986, 877.5)" x="74.5986" y="877.5">density</text>
</g>
<polyline clip-path="url(#clip910)" style="stroke:#00528a; stroke-linecap:round; stroke-linejoin:round; stroke-width:7.2; stroke-opacity:1; fill:none" points="300,1574.92 306.644,1574.92 313.289,1574.92 319.933,1574.92 326.577,1574.91 333.221,1574.91 339.866,1574.91 346.51,1574.9 353.154,1574.9 359.799,1574.9 366.443,1574.89 373.087,1574.89 379.732,1574.89 386.376,1574.88 393.02,1574.88 399.664,1574.87 406.309,1574.87 412.953,1574.87 419.597,1574.86 426.242,1574.86 432.886,1574.85 439.53,1574.85 446.174,1574.84 452.819,1574.83 459.463,1574.83 466.107,1574.82 472.752,1574.81 479.396,1574.81 486.04,1574.8 492.685,1574.79 499.329,1574.79 505.973,1574.78 512.617,1574.77 519.262,1574.76 525.906,1574.75 532.55,1574.74 539.195,1574.73 545.839,1574.72 552.483,1574.71 559.128,1574.7 565.772,1574.68 572.416,1574.67 579.06,1574.66 585.705,1574.64 592.349,1574.63 598.993,1574.61 605.638,1574.6 612.282,1574.58 618.926,1574.56 625.57,1574.54 632.215,1574.52 638.859,1574.5 645.503,1574.48 652.148,1574.45 658.792,1574.43 665.436,1574.4 672.081,1574.38 678.725,1574.35 685.369,1574.32 692.013,1574.28 698.658,1574.25 705.302,1574.21 711.946,1574.18 718.591,1574.14 725.235,1574.09 731.879,1574.05 738.523,1574 745.168,1573.95 751.812,1573.9 758.456,1573.84 765.101,1573.78 771.745,1573.71 778.389,1573.64 785.034,1573.57 791.678,1573.49 798.322,1573.41 804.966,1573.32 811.611,1573.23 818.255,1573.13 824.899,1573.02 831.544,1572.91 838.188,1572.79 844.832,1572.66 851.477,1572.52 858.121,1572.37 864.765,1572.21 871.409,1572.03 878.054,1571.85 884.698,1571.65 891.342,1571.43 897.987,1571.2 904.631,1570.95 911.275,1570.68 917.919,1570.39 924.564,1570.08 931.208,1569.74 937.852,1569.37 944.497,1568.97 951.141,1568.54 957.785,1568.06 964.43,1567.55 971.074,1566.99 977.718,1566.38 984.362,1565.71 991.007,1564.97 997.651,1564.17 1004.3,1563.29 1010.94,1562.32 1017.58,1561.26 1024.23,1560.08 1030.87,1558.79 1037.52,1557.35 1044.16,1555.76 1050.81,1553.99 1057.45,1552.03 1064.09,1549.84 1070.74,1547.39 1077.38,1544.65 1084.03,1541.58 1090.67,1538.12 1097.32,1534.23 1103.96,1529.83 1110.6,1524.84 1117.25,1519.18 1123.89,1512.73 1130.54,1505.37 1137.18,1496.93 1143.83,1487.24 1150.47,1476.07 1157.11,1463.15 1163.76,1448.17 1170.4,1430.73 1177.05,1410.38 1183.69,1386.55 1190.34,1358.58 1196.98,1325.65 1203.62,1286.82 1210.27,1240.98 1216.91,1186.85 1223.56,1123.08 1230.2,1048.26 1236.85,961.21 1243.49,861.288 1250.13,749.033 1256.78,627.017 1263.42,500.876 1270.07,380.091 1276.71,277.744 1283.36,208.349 1290,183.689 1296.64,208.349 1303.29,277.744 1309.93,380.091 1316.58,500.876 1323.22,627.017 1329.87,749.033 1336.51,861.288 1343.15,961.21 1349.8,1048.26 1356.44,1123.08 1363.09,1186.85 1369.73,1240.98 1376.38,1286.82 1383.02,1325.65 1389.66,1358.58 1396.31,1386.55 1402.95,1410.38 1409.6,1430.73 1416.24,1448.17 1422.89,1463.15 1429.53,1476.07 1436.17,1487.24 1442.82,1496.93 1449.46,1505.37 1456.11,1512.73 1462.75,1519.18 1469.4,1524.84 1476.04,1529.83 1482.68,1534.23 1489.33,1538.12 1495.97,1541.58 1502.62,1544.65 1509.26,1547.39 1515.91,1549.84 1522.55,1552.03 1529.19,1553.99 1535.84,1555.76 1542.48,1557.35 1549.13,1558.79 1555.77,1560.08 1562.42,1561.26 1569.06,1562.32 1575.7,1563.29 1582.35,1564.17 1588.99,1564.97 1595.64,1565.71 1602.28,1566.38 1608.93,1566.99 1615.57,1567.55 1622.21,1568.06 1628.86,1568.54 1635.5,1568.97 1642.15,1569.37 1648.79,1569.74 1655.44,1570.08 1662.08,1570.39 1668.72,1570.68 1675.37,1570.95 1682.01,1571.2 1688.66,1571.43 1695.3,1571.65 1701.95,1571.85 1708.59,1572.03 1715.23,1572.21 1721.88,1572.37 1728.52,1572.52 1735.17,1572.66 1741.81,1572.79 1748.46,1572.91 1755.1,1573.02 1761.74,1573.13 1768.39,1573.23 1775.03,1573.32 1781.68,1573.41 1788.32,1573.49 1794.97,1573.57 1801.61,1573.64 1808.26,1573.71 1814.9,1573.78 1821.54,1573.84 1828.19,1573.9 1834.83,1573.95 1841.48,1574 1848.12,1574.05 1854.77,1574.09 1861.41,1574.14 1868.05,1574.18 1874.7,1574.21 1881.34,1574.25 1887.99,1574.28 1894.63,1574.32 1901.28,1574.35 1907.92,1574.38 1914.56,1574.4 1921.21,1574.43 1927.85,1574.45 1934.5,1574.48 1941.14,1574.5 1947.79,1574.52 1954.43,1574.54 1961.07,1574.56 1967.72,1574.58 1974.36,1574.6 1981.01,1574.61 1987.65,1574.63 1994.3,1574.64 2000.94,1574.66 2007.58,1574.67 2014.23,1574.68 2020.87,1574.7 2027.52,1574.71 2034.16,1574.72 2040.81,1574.73 2047.45,1574.74 2054.09,1574.75 2060.74,1574.76 2067.38,1574.77 2074.03,1574.78 2080.67,1574.79 2087.32,1574.79 2093.96,1574.8 2100.6,1574.81 2107.25,1574.81 2113.89,1574.82 2120.54,1574.83 2127.18,1574.83 2133.83,1574.84 2140.47,1574.85 2147.11,1574.85 2153.76,1574.86 2160.4,1574.86 2167.05,1574.87 2173.69,1574.87 2180.34,1574.87 2186.98,1574.88 2193.62,1574.88 2200.27,1574.89 2206.91,1574.89 2213.56,1574.89 2220.2,1574.9 2226.85,1574.9 2233.49,1574.9 2240.13,1574.91 2246.78,1574.91 2253.42,1574.91 2260.07,1574.92 2266.71,1574.92 2273.36,1574.92 2280,1574.92 "/>
</svg>
