<?xml version="1.0" encoding="utf-8"?>
<svg xmlns="http://www.w3.org/2000/svg" xmlns:xlink="http://www.w3.org/1999/xlink" width="600" height="450" viewBox="0 0 2400 1800">
<defs>
  <clipPath id="clip110">
    <rect x="300" y="180" width="1981" height="1396"/>
  </clipPath>
</defs>
<defs>
  <clipPath id="clip111">
    <rect x="0" y="0" width="2400" height="1800"/>
  </clipPath>
</defs>
<path clip-path="url(#clip111)" d="M0 1800 L2400 1800 L2400 -1400 L0 -1400  Z" fill="#ffffff" fill-rule="evenodd" fill-opacity="1"/>
<polyline clip-path="url(#clip111)" style="stroke:#000000; stroke-linecap:round; stroke-linejoin:round; stroke-width:3.6; stroke-opacity:1; fill:none" points="2280,1575 2243.67,1575 "/>
<polyline clip-path="url(#clip111)" style="stroke:#000000; stroke-linecap:round; stroke-linejoin:round; stroke-width:3.6; stroke-opacity:1; fill:none" points="2280,1139.06 2243.67,1139.06 "/>
<polyline clip-path="url(#clip111)" style="stroke:#000000; stroke-linecap:round; stroke-linejoin:round; stroke-width:3.6; stroke-opacity:1; fill:none" points="2280,703.125 2243.67,703.125 "/>
<polyline clip-path="url(#clip111)" style="stroke:#000000; stroke-linecap:round; stroke-linejoin:round; stroke-width:3.6; stroke-opacity:1; fill:none" points="2280,267.188 2243.67,267.188 "/>
<polyline clip-path="url(#clip111)" style="stroke:#000000; stroke-linecap:round; stroke-linejoin:round; stroke-width:3.6; stroke-opacity:1; fill:none" points="300,1575 336.331,1575 "/>
<polyline clip-path="url(#clip111)" style="stroke:#000000; stroke-linecap:round; stroke-linejoin:round; stroke-width:3.6; stroke-opacity:1; fill:none" points="300,1139.06 336.331,1139.06 "/>
<polyline clip-path="url(#clip111)" style="stroke:#000000; stroke-linecap:round; stroke-linejoin:round; stroke-width:3.6; stroke-opacity:1; fill:none" points="300,703.125 336.331,703.125 "/>
<polyline clip-path="url(#clip111)" style="stroke:#000000; stroke-linecap:round; stroke-linejoin:round; stroke-width:3.6; stroke-opacity:1; fill:none" points="300,267.188 336.331,267.188 "/>
<polyline clip-path="url(#clip111)" style="stroke:#000000; stroke-linecap:round; stroke-linejoin:round; stroke-width:3.6; stroke-opacity:1; fill:none" points="300,180 300,216.331 "/>
<polyline clip-path="url(#clip111)" style="stroke:#000000; stroke-linecap:round; stroke-linejoin:round; stroke-width:3.6; stroke-opacity:1; fill:none" points="630,180 630,216.331 "/>
<polyline clip-path="url(#clip111)" style="stroke:#000000; stroke-linecap:round; stroke-linejoin:round; stroke-width:3.6; stroke-opacity:1; fill:none" points="960,180 960,216.331 "/>
<polyline clip-path="url(#clip111)" style="stroke:#000000; stroke-linecap:round; stroke-linejoin:round; stroke-width:3.6; stroke-opacity:1; fill:none" points="1290,180 1290,216.331 "/>
<polyline clip-path="url(#clip111)" style="stroke:#000000; stroke-linecap:round; stroke-linejoin:round; stroke-width:3.6; stroke-opacity:1; fill:none" points="1620,180 1620,216.331 "/>
<polyline clip-path="url(#clip111)" style="stroke:#000000; stroke-linecap:round; stroke-linejoin:round; stroke-width:3.6; stroke-opacity:1; fill:none" points="1950,180 1950,216.331 "/>
<polyline clip-path="url(#clip111)" style="stroke:#000000; stroke-linecap:round; stroke-linejoin:round; stroke-width:3.6; stroke-opacity:1; fill:none" points="2280,180 2280,216.331 "/>
<polyline clip-path="url(#clip111)" style="stroke:#000000; stroke-linecap:round; stroke-linejoin:round; stroke-width:3.6; stroke-opacity:1; fill:none" points="300,1575 300,1538.67 "/>
<polyline clip-path="url(#clip111)" style="stroke:#000000; stroke-linecap:round; stroke-linejoin:round; stroke-width:3.6; stroke-opacity:1; fill:none" points="630,1575 630,1538.67 "/>
<polyline clip-path="url(#clip111)" style="stroke:#000000; stroke-linecap:round; stroke-linejoin:round; stroke-width:3.6; stroke-opacity:1; fill:none" points="960,1575 960,1538.67 "/>
<polyline clip-path="url(#clip111)" style="stroke:#000000; stroke-linecap:round; stroke-linejoin:round; stroke-width:3.6; stroke-opacity:1; fill:none" points="1290,1575 1290,1538.67 "/>
<polyline clip-path="url(#clip111)" style="stroke:#000000; stroke-linecap:round; stroke-linejoin:round; stroke-width:3.6; stroke-opacity:1; fill:none" points="1620,1575 1620,1538.67 "/>
<polyline clip-path="url(#clip111)" style="stroke:#000000; stroke-linecap:round; stroke-linejoin:round; stroke-width:3.6; stroke-opacity:1; fill:none" points="1950,1575 1950,1538.67 "/>
<polyline clip-path="url(#clip111)" style="stroke:#000000; stroke-linecap:round; stroke-linejoin:round; stroke-width:3.6; stroke-opacity:1; fill:none" points="2280,1575 2280,1538.67 "/>
<polyline clip-path="url(#clip111)" style="stroke:#000000; stroke-linecap:round; stroke-linejoin:round; stroke-width:3.6; stroke-opacity:1; fill:none" points="2280,1487.81 2261.83,1487.81 "/>
<polyline clip-path="url(#clip111)" style="stroke:#000000; stroke-linecap:round; stroke-linejoin:round; stroke-width:3.6; stroke-opacity:1; fill:none" points="2280,1400.62 2261.83,1400.62 "/>
<polyline clip-path="url(#clip111)" style="stroke:#000000; stroke-linecap:round; stroke-linejoin:round; stroke-width:3.6; stroke-opacity:1; fill:none" points="2280,1313.44 2261.83,1313.44 "/>
<polyline clip-path="url(#clip111)" style="stroke:#000000; stroke-linecap:round; stroke-linejoin:round; stroke-width:3.6; stroke-opacity:1; fill:none" points="2280,1226.25 2261.83,1226.25 "/>
<polyline clip-path="url(#clip111)" style="stroke:#000000; stroke-linecap:round; stroke-linejoin:round; stroke-width:3.6; stroke-opacity:1; fill:none" points="2280,1051.88 2261.83,1051.88 "/>
<polyline clip-path="url(#clip111)" style="stroke:#000000; stroke-linecap:round; stroke-linejoin:round; stroke-width:3.6; stroke-opacity:1; fill:none" points="2280,964.687 2261.83,964.687 "/>
<polyline clip-path="url(#clip111)" style="stroke:#000000; stroke-linecap:round; stroke-linejoin:round; stroke-width:3.6; stroke-opacity:1; fill:none" points="2280,877.5 2261.83,877.5 "/>
<polyline clip-path="url(#clip111)" style="stroke:#000000; stroke-linecap:round; stroke-linejoin:round; stroke-width:3.6; stroke-opacity:1; fill:none" points="2280,790.312 2261.83,790.312 "/>
<polyline clip-path="url(#clip111)" style="stroke:#000000; stroke-linecap:round; stroke-linejoin:round; stroke-width:3.6; stroke-opacity:1; fill:none" points="2280,615.938 2261.83,615.938 "/>
<polyline clip-path="url(#clip111)" style="stroke:#000000; stroke-linecap:round; stroke-linejoin:round; stroke-width:3.6; stroke-opacity:1; fill:none" points="2280,528.75 2261.83,528.75 "/>
<polyline clip-path="url(#clip111)" style="stroke:#000000; stroke-linecap:round; stroke-linejoin:round; stroke-width:3.6; stroke-opacity:1; fill:none" points="2280,441.562 2261.83,441.562 "/>
<polyline clip-path="url(#clip111)" style="stroke:#000000; stroke-linecap:round; stroke-linejoin:round; stroke-width:3.6; stroke-opacity:1; fill:none" points="2280,354.375 2261.83,354.375 "/>
<polyline clip-path="url(#clip111)" style="stroke:#000000; stroke-linecap:round; stroke-linejoin:round; stroke-width:3.6; stroke-opacity:1; fill:none" points="2280,180 2261.83,180 "/>
<polyline clip-path="url(#clip111)" style="stroke:#000000; stroke-linecap:round; stroke-linejoin:round; stroke-width:3.6; stroke-opacity:1; fill:none" points="300,1487.81 318.166,1487.81 "/>
<polyline clip-path="url(#clip111)" style="stroke:#000000; stroke-linecap:round; stroke-linejoin:round; stroke-width:3.6; stroke-opacity:1; fill:none" points="300,1400.62 318.166,1400.62 "/>
<polyline clip-path="url(#clip111)" style="stroke:#000000; stroke-linecap:round; stroke-linejoin:round; stroke-width:3.6; stroke-opacity:1; fill:none" points="300,1313.44 318.166,1313.44 "/>
<polyline clip-path="url(#clip111)" style="stroke:#000000; stroke-linecap:round; stroke-linejoin:round; stroke-width:3.6; stroke-opacity:1; fill:none" points="300,1226.25 318.166,1226.25 "/>
<polyline clip-path="url(#clip111)" style="stroke:#000000; stroke-linecap:round; stroke-linejoin:round; stroke-width:3.6; stroke-opacity:1; fill:none" points="300,1051.88 318.166,1051.88 "/>
<polyline clip-path="url(#clip111)" style="stroke:#000000; stroke-linecap:round; stroke-linejoin:round; stroke-width:3.6; stroke-opacity:1; fill:none" points="300,964.687 318.166,964.687 "/>
<polyline clip-path="url(#clip111)" style="stroke:#000000; stroke-linecap:round; stroke-linejoin:round; stroke-width:3.6; stroke-opacity:1; fill:none" points="300,877.5 318.166,877.5 "/>
<polyline clip-path="url(#clip111)" style="stroke:#000000; stroke-linecap:round; stroke-linejoin:round; stroke-width:3.6; stroke-opacity:1; fill:none" points="300,790.312 318.166,790.312 "/>
<polyline clip-path="url(#clip111)" style="stroke:#000000; stroke-linecap:round; stroke-linejoin:round; stroke-width:3.6; stroke-opacity:1; fill:none" points="300,615.938 318.166,615.938 "/>
<polyline clip-path="url(#clip111)" style="stroke:#000000; stroke-linecap:round; stroke-linejoin:round; stroke-width:3.6; stroke-opacity:1; fill:none" points="300,528.75 318.166,528.75 "/>
<polyline clip-path="url(#clip111)" style="stroke:#000000; stroke-linecap:round; stroke-linejoin:round; stroke-width:3.6; stroke-opacity:1; fill:none" points="300,441.562 318.166,441.562 "/>
<polyline clip-path="url(#clip111)" style="stroke:#000000; stroke-linecap:round; stroke-linejoin:round; stroke-width:3.6; stroke-opacity:1; fill:none" points="300,354.375 318.166,354.375 "/>
<polyline clip-path="url(#clip111)" style="stroke:#000000; stroke-linecap:round; stroke-linejoin:round; stroke-width:3.6; stroke-opacity:1; fill:none" points="300,180 318.166,180 "/>
<polyline clip-path="url(#clip111)" style="stroke:#000000; stroke-linecap:round; stroke-linejoin:round; stroke-width:3.6; stroke-opacity:1; fill:none" points="366,180 366,198.166 "/>
<polyline clip-path="url(#clip111)" style="stroke:#000000; stroke-linecap:round; stroke-linejoin:round; stroke-width:3.6; stroke-opacity:1; fill:none" points="432,180 432,198.166 "/>
<polyline clip-path="url(#clip111)" style="stroke:#000000; stroke-linecap:round; stroke-linejoin:round; stroke-width:3.6; stroke-opacity:1; fill:none" points="498,180 498,198.166 "/>
<polyline clip-path="url(#clip111)" style="stroke:#000000; stroke-linecap:round; stroke-linejoin:round; stroke-width:3.6; stroke-opacity:1; fill:none" points="564,180 564,198.166 "/>
<polyline clip-path="url(#clip111)" style="stroke:#000000; stroke-linecap:round; stroke-linejoin:round; stroke-width:3.6; stroke-opacity:1; fill:none" points="696,180 696,198.166 "/>
<polyline clip-path="url(#clip111)" style="stroke:#000000; stroke-linecap:round; stroke-linejoin:round; stroke-width:3.6; stroke-opacity:1; fill:none" points="762,180 762,198.166 "/>
<polyline clip-path="url(#clip111)" style="stroke:#000000; stroke-linecap:round; stroke-linejoin:round; stroke-width:3.6; stroke-opacity:1; fill:none" points="828,180 828,198.166 "/>
<polyline clip-path="url(#clip111)" style="stroke:#000000; stroke-linecap:round; stroke-linejoin:round; stroke-width:3.6; stroke-opacity:1; fill:none" points="894,180 894,198.166 "/>
<polyline clip-path="url(#clip111)" style="stroke:#000000; stroke-linecap:round; stroke-linejoin:round; stroke-width:3.6; stroke-opacity:1; fill:none" points="1026,180 1026,198.166 "/>
<polyline clip-path="url(#clip111)" style="stroke:#000000; stroke-linecap:round; stroke-linejoin:round; stroke-width:3.6; stroke-opacity:1; fill:none" points="1092,180 1092,198.166 "/>
<polyline clip-path="url(#clip111)" style="stroke:#000000; stroke-linecap:round; stroke-linejoin:round; stroke-width:3.6; stroke-opacity:1; fill:none" points="1158,180 1158,198.166 "/>
<polyline clip-path="url(#clip111)" style="stroke:#000000; stroke-linecap:round; stroke-linejoin:round; stroke-width:3.6; stroke-opacity:1; fill:none" points="1224,180 1224,198.166 "/>
<polyline clip-path="url(#clip111)" style="stroke:#000000; stroke-linecap:round; stroke-linejoin:round; stroke-width:3.6; stroke-opacity:1; fill:none" points="1356,180 1356,198.166 "/>
<polyline clip-path="url(#clip111)" style="stroke:#000000; stroke-linecap:round; stroke-linejoin:round; stroke-width:3.6; stroke-opacity:1; fill:none" points="1422,180 1422,198.166 "/>
<polyline clip-path="url(#clip111)" style="stroke:#000000; stroke-linecap:round; stroke-linejoin:round; stroke-width:3.6; stroke-opacity:1; fill:none" points="1488,180 1488,198.166 "/>
<polyline clip-path="url(#clip111)" style="stroke:#000000; stroke-linecap:round; stroke-linejoin:round; stroke-width:3.6; stroke-opacity:1; fill:none" points="1554,180 1554,198.166 "/>
<polyline clip-path="url(#clip111)" style="stroke:#000000; stroke-linecap:round; stroke-linejoin:round; stroke-width:3.6; stroke-opacity:1; fill:none" points="1686,180 1686,198.166 "/>
<polyline clip-path="url(#clip111)" style="stroke:#000000; stroke-linecap:round; stroke-linejoin:round; stroke-width:3.6; stroke-opacity:1; fill:none" points="1752,180 1752,198.166 "/>
<polyline clip-path="url(#clip111)" style="stroke:#000000; stroke-linecap:round; stroke-linejoin:round; stroke-width:3.6; stroke-opacity:1; fill:none" points="1818,180 1818,198.166 "/>
<polyline clip-path="url(#clip111)" style="stroke:#000000; stroke-linecap:round; stroke-linejoin:round; stroke-width:3.6; stroke-opacity:1; fill:none" points="1884,180 1884,198.166 "/>
<polyline clip-path="url(#clip111)" style="stroke:#000000; stroke-linecap:round; stroke-linejoin:round; stroke-width:3.6; stroke-opacity:1; fill:none" points="2016,180 2016,198.166 "/>
<polyline clip-path="url(#clip111)" style="stroke:#000000; stroke-linecap:round; stroke-linejoin:round; stroke-width:3.6; stroke-opacity:1; fill:none" points="2082,180 2082,198.166 "/>
<polyline clip-path="url(#clip111)" style="stroke:#000000; stroke-linecap:round; stroke-linejoin:round; stroke-width:3.6; stroke-opacity:1; fill:none" points="2148,180 2148,198.166 "/>
<polyline clip-path="url(#clip111)" style="stroke:#000000; stroke-linecap:round; stroke-linejoin:round; stroke-width:3.6; stroke-opacity:1; fill:none" points="2214,180 2214,198.166 "/>
<polyline clip-path="url(#clip111)" style="stroke:#000000; stroke-linecap:round; stroke-linejoin:round; stroke-width:3.6; stroke-opacity:1; fill:none" points="366,1575 366,1556.83 "/>
<polyline clip-path="url(#clip111)" style="stroke:#000000; stroke-linecap:round; stroke-linejoin:round; stroke-width:3.6; stroke-opacity:1; fill:none" points="432,1575 432,1556.83 "/>
<polyline clip-path="url(#clip111)" style="stroke:#000000; stroke-linecap:round; stroke-linejoin:round; stroke-width:3.6; stroke-opacity:1; fill:none" points="498,1575 498,1556.83 "/>
<polyline clip-path="url(#clip111)" style="stroke:#000000; stroke-linecap:round; stroke-linejoin:round; stroke-width:3.6; stroke-opacity:1; fill:none" points="564,1575 564,1556.83 "/>
<polyline clip-path="url(#clip111)" style="stroke:#000000; stroke-linecap:round; stroke-linejoin:round; stroke-width:3.6; stroke-opacity:1; fill:none" points="696,1575 696,1556.83 "/>
<polyline clip-path="url(#clip111)" style="stroke:#000000; stroke-linecap:round; stroke-linejoin:round; stroke-width:3.6; stroke-opacity:1; fill:none" points="762,1575 762,1556.83 "/>
<polyline clip-path="url(#clip111)" style="stroke:#000000; stroke-linecap:round; stroke-linejoin:round; stroke-width:3.6; stroke-opacity:1; fill:none" points="828,1575 828,1556.83 "/>
<polyline clip-path="url(#clip111)" style="stroke:#000000; stroke-linecap:round; stroke-linejoin:round; stroke-width:3.6; stroke-opacity:1; fill:none" points="894,1575 894,1556.83 "/>
<polyline clip-path="url(#clip111)" style="stroke:#000000; stroke-linecap:round; stroke-linejoin:round; stroke-width:3.6; stroke-opacity:1; fill:none" points="1026,1575 1026,1556.83 "/>
<polyline clip-path="url(#clip111)" style="stroke:#000000; stroke-linecap:round; stroke-linejoin:round; stroke-width:3.6; stroke-opacity:1; fill:none" points="1092,1575 1092,1556.83 "/>
<polyline clip-path="url(#clip111)" style="stroke:#000000; stroke-linecap:round; stroke-linejoin:round; stroke-width:3.6; stroke-opacity:1; fill:none" points="1158,1575 1158,1556.83 "/>
<polyline clip-path="url(#clip111)" style="stroke:#000000; stroke-linecap:round; stroke-linejoin:round; stroke-width:3.6; stroke-opacity:1; fill:none" points="1224,1575 1224,1556.83 "/>
<polyline clip-path="url(#clip111)" style="stroke:#000000; stroke-linecap:round; stroke-linejoin:round; stroke-width:3.6; stroke-opacity:1; fill:none" points="1356,1575 1356,1556.83 "/>
<polyline clip-path="url(#clip111)" style="stroke:#000000; stroke-linecap:round; stroke-linejoin:round; stroke-width:3.6; stroke-opacity:1; fill:none" points="1422,1575 1422,1556.83 "/>
<polyline clip-path="url(#clip111)" style="stroke:#000000; stroke-linecap:round; stroke-linejoin:round; stroke-width:3.6; stroke-opacity:1; fill:none" points="1488,1575 1488,1556.83 "/>
<polyline clip-path="url(#clip111)" style="stroke:#000000; stroke-linecap:round; stroke-linejoin:round; stroke-width:3.6; stroke-opacity:1; fill:none" points="1554,1575 1554,1556.83 "/>
<polyline clip-path="url(#clip111)" style="stroke:#000000; stroke-linecap:round; stroke-linejoin:round; stroke-width:3.6; stroke-opacity:1; fill:none" points="1686,1575 1686,1556.83 "/>
<polyline clip-path="url(#clip111)" style="stroke:#000000; stroke-linecap:round; stroke-linejoin:round; stroke-width:3.6; stroke-opacity:1; fill:none" points="1752,1575 1752,1556.83 "/>
<polyline clip-path="url(#clip111)" style="stroke:#000000; stroke-linecap:round; stroke-linejoin:round; stroke-width:3.6; stroke-opacity:1; fill:none" points="1818,1575 1818,1556.83 "/>
<polyline clip-path="url(#clip111)" style="stroke:#000000; stroke-linecap:round; stroke-linejoin:round; stroke-width:3.6; stroke-opacity:1; fill:none" points="1884,1575 1884,1556.83 "/>
<polyline clip-path="url(#clip111)" style="stroke:#000000; stroke-linecap:round; stroke-linejoin:round; stroke-width:3.6; stroke-opacity:1; fill:none" points="2016,1575 2016,1556.83 "/>
<polyline clip-path="url(#clip111)" style="stroke:#000000; stroke-linecap:round; stroke-linejoin:round; stroke-width:3.6; stroke-opacity:1; fill:none" points="2082,1575 2082,1556.83 "/>
<polyline clip-path="url(#clip111)" style="stroke:#000000; stroke-linecap:round; stroke-linejoin:round; stroke-width:3.6; stroke-opacity:1; fill:none" points="2148,1575 2148,1556.83 "/>
<polyline clip-path="url(#clip111)" style="stroke:#000000; stroke-linecap:round; stroke-linejoin:round; stroke-width:3.6; stroke-opacity:1; fill:none" points="2214,1575 2214,1556.83 "/>
<polyline clip-path="url(#clip111)" style="stroke:#000000; stroke-linecap:round; stroke-linejoin:round; stroke-width:3.6; stroke-opacity:1; fill:none" points="2280,1575 2280,180 "/>
<polyline clip-path="url(#clip111)" style="stroke:#000000; stroke-linecap:round; stroke-linejoin:round; stroke-width:3.6; stroke-opacity:1; fill:none" points="300,1575 300,180 "/>
<polyline clip-path="url(#clip111)" style="stroke:#000000; stroke-linecap:round; stroke-linejoin:round; stroke-width:3.6; stroke-opacity:1; fill:none" points="300,180 2280,180 "/>
<polyline clip-path="url(#clip111)" style="stroke:#000000; stroke-linecap:round; stroke-linejoin:round; stroke-width:3.6; stroke-opacity:1; fill:none" points="300,1575 2280,1575 "/>
<g clip-path="url(#clip111)">
<text style="fill:#000000; fill-opacity:1; font-family:Arial,Helvetica Neue,Helvetica,sans-serif; font-size:60px; text-anchor:start;" transform="rotate(0, 248.074, 1592.22)" x="248.074" y="1592.22">0</text>
</g>
<g clip-path="url(#clip111)">
<text style="fill:#000000; fill-opacity:1; font-family:Arial,Helvetica Neue,Helvetica,sans-serif; font-size:60px; text-anchor:start;" transform="rotate(0, 248.074, 1156.28)" x="248.074" y="1156.28">5</text>
</g>
<g clip-path="url(#clip111)">
<text style="fill:#000000; fill-opacity:1; font-family:Arial,Helvetica Neue,Helvetica,sans-serif; font-size:60px; text-anchor:start;" transform="rotate(0, 214.313, 720.346)" x="214.313" y="720.346">10</text>
</g>
<g clip-path="url(#clip111)">
<text style="fill:#000000; fill-opacity:1; font-family:Arial,Helvetica Neue,Helvetica,sans-serif; font-size:60px; text-anchor:start;" transform="rotate(0, 214.313, 284.408)" x="214.313" y="284.408">15</text>
</g>
<g clip-path="url(#clip111)">
<text style="fill:#000000; fill-opacity:1; font-family:Arial,Helvetica Neue,Helvetica,sans-serif; font-size:60px; text-anchor:start;" transform="rotate(0, 283.12, 1647.23)" x="283.12" y="1647.23">0</text>
</g>
<g clip-path="url(#clip111)">
<text style="fill:#000000; fill-opacity:1; font-family:Arial,Helvetica Neue,Helvetica,sans-serif; font-size:60px; text-anchor:start;" transform="rotate(0, 587.799, 1647.23)" x="587.799" y="1647.23">0.5</text>
</g>
<g clip-path="url(#clip111)">
<text style="fill:#000000; fill-opacity:1; font-family:Arial,Helvetica Neue,Helvetica,sans-serif; font-size:60px; text-anchor:start;" transform="rotate(0, 917.799, 1647.23)" x="917.799" y="1647.23">1.0</text>
</g>
<g clip-path="url(#clip111)">
<text style="fill:#000000; fill-opacity:1; font-family:Arial,Helvetica Neue,Helvetica,sans-serif; font-size:60px; text-anchor:start;" transform="rotate(0, 1247.8, 1647.23)" x="1247.8" y="1647.23">1.5</text>
</g>
<g clip-path="url(#clip111)">
<text style="fill:#000000; fill-opacity:1; font-family:Arial,Helvetica Neue,Helvetica,sans-serif; font-size:60px; text-anchor:start;" transform="rotate(0, 1577.8, 1647.23)" x="1577.8" y="1647.23">2.0</text>
</g>
<g clip-path="url(#clip111)">
<text style="fill:#000000; fill-opacity:1; font-family:Arial,Helvetica Neue,Helvetica,sans-serif; font-size:60px; text-anchor:start;" transform="rotate(0, 1907.8, 1647.23)" x="1907.8" y="1647.23">2.5</text>
</g>
<g clip-path="url(#clip111)">
<text style="fill:#000000; fill-opacity:1; font-family:Arial,Helvetica Neue,Helvetica,sans-serif; font-size:60px; text-anchor:start;" transform="rotate(0, 2237.8, 1647.23)" x="2237.8" y="1647.23">3.0</text>
</g>
<g clip-path="url(#clip111)">
<text style="fill:#000000; fill-opacity:1; font-family:Arial,Helvetica Neue,Helvetica,sans-serif; font-size:60px; text-anchor:middle;" transform="rotate(0, 1290, 52.8)" x="1290" y="52.8">Weibull(0.5, 1)</text>
</g>
<g clip-path="url(#clip111)">
<text style="fill:#000000; fill-opacity:1; font-family:Arial,Helvetica Neue,Helvetica,sans-serif; font-size:60px; text-anchor:middle;" transform="rotate(0, 1290, 1769.4)" x="1290" y="1769.4">x</text>
</g>
<g clip-path="url(#clip111)">
<text style="fill:#000000; fill-opacity:1; font-family:Arial,Helvetica Neue,Helvetica,sans-serif; font-size:60px; text-anchor:middle;" transform="rotate(-90, 74.5986, 877.5)" x="74.5986" y="877.5">density</text>
</g>
<polyline clip-path="url(#clip110)" style="stroke:#00528a; stroke-linecap:round; stroke-linejoin:round; stroke-width:7.2; stroke-opacity:1; fill:none" points="300.66,239.356 307.302,1201.93 313.944,1315.66 320.586,1368.13 327.228,1399.82 333.87,1421.57 340.512,1437.66 347.155,1450.16 353.797,1460.23 360.439,1468.56 367.081,1475.59 373.723,1481.62 380.365,1486.87 387.007,1491.49 393.649,1495.59 400.291,1499.27 406.933,1502.58 413.575,1505.59 420.217,1508.34 426.86,1510.86 433.502,1513.18 440.144,1515.33 446.786,1517.32 453.428,1519.17 460.07,1520.9 466.712,1522.53 473.354,1524.05 479.996,1525.48 486.638,1526.83 493.28,1528.11 499.922,1529.32 506.564,1530.46 513.207,1531.55 519.849,1532.59 526.491,1533.58 533.133,1534.52 539.775,1535.42 546.417,1536.27 553.059,1537.1 559.701,1537.89 566.343,1538.64 572.985,1539.37 579.627,1540.07 586.269,1540.74 592.912,1541.39 599.554,1542.01 606.196,1542.61 612.838,1543.19 619.48,1543.75 626.122,1544.29 632.764,1544.82 639.406,1545.32 646.048,1545.82 652.69,1546.29 659.332,1546.75 665.974,1547.2 672.617,1547.63 679.259,1548.05 685.901,1548.46 692.543,1548.86 699.185,1549.25 705.827,1549.62 712.469,1549.99 719.111,1550.34 725.753,1550.69 732.395,1551.03 739.037,1551.36 745.679,1551.68 752.321,1551.99 758.964,1552.29 765.606,1552.59 772.248,1552.88 778.89,1553.17 785.532,1553.44 792.174,1553.71 798.816,1553.98 805.458,1554.24 812.1,1554.49 818.742,1554.74 825.384,1554.98 832.026,1555.22 838.669,1555.45 845.311,1555.68 851.953,1555.9 858.595,1556.12 865.237,1556.33 871.879,1556.54 878.521,1556.74 885.163,1556.94 891.805,1557.14 898.447,1557.33 905.089,1557.52 911.731,1557.71 918.373,1557.89 925.016,1558.07 931.658,1558.25 938.3,1558.42 944.942,1558.59 951.584,1558.76 958.226,1558.92 964.868,1559.08 971.51,1559.24 978.152,1559.39 984.794,1559.55 991.436,1559.7 998.078,1559.84 1004.72,1559.99 1011.36,1560.13 1018,1560.27 1024.65,1560.41 1031.29,1560.55 1037.93,1560.68 1044.57,1560.81 1051.22,1560.94 1057.86,1561.07 1064.5,1561.19 1071.14,1561.32 1077.78,1561.44 1084.43,1561.56 1091.07,1561.68 1097.71,1561.79 1104.35,1561.91 1110.99,1562.02 1117.64,1562.13 1124.28,1562.24 1130.92,1562.35 1137.56,1562.46 1144.2,1562.56 1150.85,1562.66 1157.49,1562.77 1164.13,1562.87 1170.77,1562.97 1177.41,1563.06 1184.06,1563.16 1190.7,1563.26 1197.34,1563.35 1203.98,1563.44 1210.63,1563.53 1217.27,1563.62 1223.91,1563.71 1230.55,1563.8 1237.19,1563.89 1243.84,1563.97 1250.48,1564.06 1257.12,1564.14 1263.76,1564.23 1270.4,1564.31 1277.05,1564.39 1283.69,1564.47 1290.33,1564.55 1296.97,1564.62 1303.61,1564.7 1310.26,1564.77 1316.9,1564.85 1323.54,1564.92 1330.18,1565 1336.82,1565.07 1343.47,1565.14 1350.11,1565.21 1356.75,1565.28 1363.39,1565.35 1370.03,1565.42 1376.68,1565.48 1383.32,1565.55 1389.96,1565.62 1396.6,1565.68 1403.25,1565.75 1409.89,1565.81 1416.53,1565.87 1423.17,1565.93 1429.81,1566 1436.46,1566.06 1443.1,1566.12 1449.74,1566.18 1456.38,1566.23 1463.02,1566.29 1469.67,1566.35 1476.31,1566.41 1482.95,1566.46 1489.59,1566.52 1496.23,1566.57 1502.88,1566.63 1509.52,1566.68 1516.16,1566.74 1522.8,1566.79 1529.44,1566.84 1536.09,1566.89 1542.73,1566.94 1549.37,1567 1556.01,1567.05 1562.66,1567.1 1569.3,1567.15 1575.94,1567.19 1582.58,1567.24 1589.22,1567.29 1595.87,1567.34 1602.51,1567.38 1609.15,1567.43 1615.79,1567.48 1622.43,1567.52 1629.08,1567.57 1635.72,1567.61 1642.36,1567.66 1649,1567.7 1655.64,1567.74 1662.29,1567.79 1668.93,1567.83 1675.57,1567.87 1682.21,1567.91 1688.85,1567.96 1695.5,1568 1702.14,1568.04 1708.78,1568.08 1715.42,1568.12 1722.07,1568.16 1728.71,1568.2 1735.35,1568.24 1741.99,1568.27 1748.63,1568.31 1755.28,1568.35 1761.92,1568.39 1768.56,1568.42 1775.2,1568.46 1781.84,1568.5 1788.49,1568.53 1795.13,1568.57 1801.77,1568.61 1808.41,1568.64 1815.05,1568.68 1821.7,1568.71 1828.34,1568.75 1834.98,1568.78 1841.62,1568.81 1848.26,1568.85 1854.91,1568.88 1861.55,1568.91 1868.19,1568.95 1874.83,1568.98 1881.48,1569.01 1888.12,1569.04 1894.76,1569.07 1901.4,1569.11 1908.04,1569.14 1914.69,1569.17 1921.33,1569.2 1927.97,1569.23 1934.61,1569.26 1941.25,1569.29 1947.9,1569.32 1954.54,1569.35 1961.18,1569.38 1967.82,1569.41 1974.46,1569.43 1981.11,1569.46 1987.75,1569.49 1994.39,1569.52 2001.03,1569.55 2007.67,1569.57 2014.32,1569.6 2020.96,1569.63 2027.6,1569.66 2034.24,1569.68 2040.89,1569.71 2047.53,1569.74 2054.17,1569.76 2060.81,1569.79 2067.45,1569.81 2074.1,1569.84 2080.74,1569.87 2087.38,1569.89 2094.02,1569.92 2100.66,1569.94 2107.31,1569.96 2113.95,1569.99 2120.59,1570.01 2127.23,1570.04 2133.87,1570.06 2140.52,1570.09 2147.16,1570.11 2153.8,1570.13 2160.44,1570.16 2167.08,1570.18 2173.73,1570.2 2180.37,1570.22 2187.01,1570.25 2193.65,1570.27 2200.3,1570.29 2206.94,1570.31 2213.58,1570.34 2220.22,1570.36 2226.86,1570.38 2233.51,1570.4 2240.15,1570.42 2246.79,1570.44 2253.43,1570.46 2260.07,1570.49 2266.72,1570.51 2273.36,1570.53 2280,1570.55 "/>
</svg>
