<?xml version="1.0" encoding="utf-8"?>
<svg xmlns="http://www.w3.org/2000/svg" xmlns:xlink="http://www.w3.org/1999/xlink" width="600" height="450" viewBox="0 0 2400 1800">
<defs>
  <clipPath id="clip920">
    <rect x="300" y="180" width="1981" height="1396"/>
  </clipPath>
</defs>
<defs>
  <clipPath id="clip921">
    <rect x="0" y="0" width="2400" height="1800"/>
  </clipPath>
</defs>
<path clip-path="url(#clip921)" d="M0 1800 L2400 1800 L2400 -1400 L0 -1400  Z" fill="#ffffff" fill-rule="evenodd" fill-opacity="1"/>
<polyline clip-path="url(#clip921)" style="stroke:#000000; stroke-linecap:round; stroke-linejoin:round; stroke-width:3.6; stroke-opacity:1; fill:none" points="2280,1575 2243.67,1575 "/>
<polyline clip-path="url(#clip921)" style="stroke:#000000; stroke-linecap:round; stroke-linejoin:round; stroke-width:3.6; stroke-opacity:1; fill:none" points="2280,1271.74 2243.67,1271.74 "/>
<polyline clip-path="url(#clip921)" style="stroke:#000000; stroke-linecap:round; stroke-linejoin:round; stroke-width:3.6; stroke-opacity:1; fill:none" points="2280,968.478 2243.67,968.478 "/>
<polyline clip-path="url(#clip921)" style="stroke:#000000; stroke-linecap:round; stroke-linejoin:round; stroke-width:3.6; stroke-opacity:1; fill:none" points="2280,665.217 2243.67,665.217 "/>
<polyline clip-path="url(#clip921)" style="stroke:#000000; stroke-linecap:round; stroke-linejoin:round; stroke-width:3.6; stroke-opacity:1; fill:none" points="2280,361.957 2243.67,361.957 "/>
<polyline clip-path="url(#clip921)" style="stroke:#000000; stroke-linecap:round; stroke-linejoin:round; stroke-width:3.6; stroke-opacity:1; fill:none" points="300,1575 336.331,1575 "/>
<polyline clip-path="url(#clip921)" style="stroke:#000000; stroke-linecap:round; stroke-linejoin:round; stroke-width:3.6; stroke-opacity:1; fill:none" points="300,1271.74 336.331,1271.74 "/>
<polyline clip-path="url(#clip921)" style="stroke:#000000; stroke-linecap:round; stroke-linejoin:round; stroke-width:3.6; stroke-opacity:1; fill:none" points="300,968.478 336.331,968.478 "/>
<polyline clip-path="url(#clip921)" style="stroke:#000000; stroke-linecap:round; stroke-linejoin:round; stroke-width:3.6; stroke-opacity:1; fill:none" points="300,665.217 336.331,665.217 "/>
<polyline clip-path="url(#clip921)" style="stroke:#000000; stroke-linecap:round; stroke-linejoin:round; stroke-width:3.6; stroke-opacity:1; fill:none" points="300,361.957 336.331,361.957 "/>
<polyline clip-path="url(#clip921)" style="stroke:#000000; stroke-linecap:round; stroke-linejoin:round; stroke-width:3.6; stroke-opacity:1; fill:none" points="394.286,180 394.286,216.331 "/>
<polyline clip-path="url(#clip921)" style="stroke:#000000; stroke-linecap:round; stroke-linejoin:round; stroke-width:3.6; stroke-opacity:1; fill:none" points="865.714,180 865.714,216.331 "/>
<polyline clip-path="url(#clip921)" style="stroke:#000000; stroke-linecap:round; stroke-linejoin:round; stroke-width:3.6; stroke-opacity:1; fill:none" points="1337.14,180 1337.14,216.331 "/>
<polyline clip-path="url(#clip921)" style="stroke:#000000; stroke-linecap:round; stroke-linejoin:round; stroke-width:3.6; stroke-opacity:1; fill:none" points="1808.57,180 1808.57,216.331 "/>
<polyline clip-path="url(#clip921)" style="stroke:#000000; stroke-linecap:round; stroke-linejoin:round; stroke-width:3.6; stroke-opacity:1; fill:none" points="2280,180 2280,216.331 "/>
<polyline clip-path="url(#clip921)" style="stroke:#000000; stroke-linecap:round; stroke-linejoin:round; stroke-width:3.6; stroke-opacity:1; fill:none" points="394.286,1575 394.286,1538.67 "/>
<polyline clip-path="url(#clip921)" style="stroke:#000000; stroke-linecap:round; stroke-linejoin:round; stroke-width:3.6; stroke-opacity:1; fill:none" points="865.714,1575 865.714,1538.67 "/>
<polyline clip-path="url(#clip921)" style="stroke:#000000; stroke-linecap:round; stroke-linejoin:round; stroke-width:3.6; stroke-opacity:1; fill:none" points="1337.14,1575 1337.14,1538.67 "/>
<polyline clip-path="url(#clip921)" style="stroke:#000000; stroke-linecap:round; stroke-linejoin:round; stroke-width:3.6; stroke-opacity:1; fill:none" points="1808.57,1575 1808.57,1538.67 "/>
<polyline clip-path="url(#clip921)" style="stroke:#000000; stroke-linecap:round; stroke-linejoin:round; stroke-width:3.6; stroke-opacity:1; fill:none" points="2280,1575 2280,1538.67 "/>
<polyline clip-path="url(#clip921)" style="stroke:#000000; stroke-linecap:round; stroke-linejoin:round; stroke-width:3.6; stroke-opacity:1; fill:none" points="2280,1514.35 2261.83,1514.35 "/>
<polyline clip-path="url(#clip921)" style="stroke:#000000; stroke-linecap:round; stroke-linejoin:round; stroke-width:3.6; stroke-opacity:1; fill:none" points="2280,1453.7 2261.83,1453.7 "/>
<polyline clip-path="url(#clip921)" style="stroke:#000000; stroke-linecap:round; stroke-linejoin:round; stroke-width:3.6; stroke-opacity:1; fill:none" points="2280,1393.04 2261.83,1393.04 "/>
<polyline clip-path="url(#clip921)" style="stroke:#000000; stroke-linecap:round; stroke-linejoin:round; stroke-width:3.6; stroke-opacity:1; fill:none" points="2280,1332.39 2261.83,1332.39 "/>
<polyline clip-path="url(#clip921)" style="stroke:#000000; stroke-linecap:round; stroke-linejoin:round; stroke-width:3.6; stroke-opacity:1; fill:none" points="2280,1211.09 2261.83,1211.09 "/>
<polyline clip-path="url(#clip921)" style="stroke:#000000; stroke-linecap:round; stroke-linejoin:round; stroke-width:3.6; stroke-opacity:1; fill:none" points="2280,1150.43 2261.83,1150.43 "/>
<polyline clip-path="url(#clip921)" style="stroke:#000000; stroke-linecap:round; stroke-linejoin:round; stroke-width:3.6; stroke-opacity:1; fill:none" points="2280,1089.78 2261.83,1089.78 "/>
<polyline clip-path="url(#clip921)" style="stroke:#000000; stroke-linecap:round; stroke-linejoin:round; stroke-width:3.6; stroke-opacity:1; fill:none" points="2280,1029.13 2261.83,1029.13 "/>
<polyline clip-path="url(#clip921)" style="stroke:#000000; stroke-linecap:round; stroke-linejoin:round; stroke-width:3.6; stroke-opacity:1; fill:none" points="2280,907.826 2261.83,907.826 "/>
<polyline clip-path="url(#clip921)" style="stroke:#000000; stroke-linecap:round; stroke-linejoin:round; stroke-width:3.6; stroke-opacity:1; fill:none" points="2280,847.174 2261.83,847.174 "/>
<polyline clip-path="url(#clip921)" style="stroke:#000000; stroke-linecap:round; stroke-linejoin:round; stroke-width:3.6; stroke-opacity:1; fill:none" points="2280,786.522 2261.83,786.522 "/>
<polyline clip-path="url(#clip921)" style="stroke:#000000; stroke-linecap:round; stroke-linejoin:round; stroke-width:3.6; stroke-opacity:1; fill:none" points="2280,725.87 2261.83,725.87 "/>
<polyline clip-path="url(#clip921)" style="stroke:#000000; stroke-linecap:round; stroke-linejoin:round; stroke-width:3.6; stroke-opacity:1; fill:none" points="2280,604.565 2261.83,604.565 "/>
<polyline clip-path="url(#clip921)" style="stroke:#000000; stroke-linecap:round; stroke-linejoin:round; stroke-width:3.6; stroke-opacity:1; fill:none" points="2280,543.913 2261.83,543.913 "/>
<polyline clip-path="url(#clip921)" style="stroke:#000000; stroke-linecap:round; stroke-linejoin:round; stroke-width:3.6; stroke-opacity:1; fill:none" points="2280,483.261 2261.83,483.261 "/>
<polyline clip-path="url(#clip921)" style="stroke:#000000; stroke-linecap:round; stroke-linejoin:round; stroke-width:3.6; stroke-opacity:1; fill:none" points="2280,422.609 2261.83,422.609 "/>
<polyline clip-path="url(#clip921)" style="stroke:#000000; stroke-linecap:round; stroke-linejoin:round; stroke-width:3.6; stroke-opacity:1; fill:none" points="2280,301.304 2261.83,301.304 "/>
<polyline clip-path="url(#clip921)" style="stroke:#000000; stroke-linecap:round; stroke-linejoin:round; stroke-width:3.6; stroke-opacity:1; fill:none" points="2280,240.652 2261.83,240.652 "/>
<polyline clip-path="url(#clip921)" style="stroke:#000000; stroke-linecap:round; stroke-linejoin:round; stroke-width:3.6; stroke-opacity:1; fill:none" points="2280,180 2261.83,180 "/>
<polyline clip-path="url(#clip921)" style="stroke:#000000; stroke-linecap:round; stroke-linejoin:round; stroke-width:3.6; stroke-opacity:1; fill:none" points="300,1514.35 318.166,1514.35 "/>
<polyline clip-path="url(#clip921)" style="stroke:#000000; stroke-linecap:round; stroke-linejoin:round; stroke-width:3.6; stroke-opacity:1; fill:none" points="300,1453.7 318.166,1453.7 "/>
<polyline clip-path="url(#clip921)" style="stroke:#000000; stroke-linecap:round; stroke-linejoin:round; stroke-width:3.6; stroke-opacity:1; fill:none" points="300,1393.04 318.166,1393.04 "/>
<polyline clip-path="url(#clip921)" style="stroke:#000000; stroke-linecap:round; stroke-linejoin:round; stroke-width:3.6; stroke-opacity:1; fill:none" points="300,1332.39 318.166,1332.39 "/>
<polyline clip-path="url(#clip921)" style="stroke:#000000; stroke-linecap:round; stroke-linejoin:round; stroke-width:3.6; stroke-opacity:1; fill:none" points="300,1211.09 318.166,1211.09 "/>
<polyline clip-path="url(#clip921)" style="stroke:#000000; stroke-linecap:round; stroke-linejoin:round; stroke-width:3.6; stroke-opacity:1; fill:none" points="300,1150.43 318.166,1150.43 "/>
<polyline clip-path="url(#clip921)" style="stroke:#000000; stroke-linecap:round; stroke-linejoin:round; stroke-width:3.6; stroke-opacity:1; fill:none" points="300,1089.78 318.166,1089.78 "/>
<polyline clip-path="url(#clip921)" style="stroke:#000000; stroke-linecap:round; stroke-linejoin:round; stroke-width:3.6; stroke-opacity:1; fill:none" points="300,1029.13 318.166,1029.13 "/>
<polyline clip-path="url(#clip921)" style="stroke:#000000; stroke-linecap:round; stroke-linejoin:round; stroke-width:3.6; stroke-opacity:1; fill:none" points="300,907.826 318.166,907.826 "/>
<polyline clip-path="url(#clip921)" style="stroke:#000000; stroke-linecap:round; stroke-linejoin:round; stroke-width:3.6; stroke-opacity:1; fill:none" points="300,847.174 318.166,847.174 "/>
<polyline clip-path="url(#clip921)" style="stroke:#000000; stroke-linecap:round; stroke-linejoin:round; stroke-width:3.6; stroke-opacity:1; fill:none" points="300,786.522 318.166,786.522 "/>
<polyline clip-path="url(#clip921)" style="stroke:#000000; stroke-linecap:round; stroke-linejoin:round; stroke-width:3.6; stroke-opacity:1; fill:none" points="300,725.87 318.166,725.87 "/>
<polyline clip-path="url(#clip921)" style="stroke:#000000; stroke-linecap:round; stroke-linejoin:round; stroke-width:3.6; stroke-opacity:1; fill:none" points="300,604.565 318.166,604.565 "/>
<polyline clip-path="url(#clip921)" style="stroke:#000000; stroke-linecap:round; stroke-linejoin:round; stroke-width:3.6; stroke-opacity:1; fill:none" points="300,543.913 318.166,543.913 "/>
<polyline clip-path="url(#clip921)" style="stroke:#000000; stroke-linecap:round; stroke-linejoin:round; stroke-width:3.6; stroke-opacity:1; fill:none" points="300,483.261 318.166,483.261 "/>
<polyline clip-path="url(#clip921)" style="stroke:#000000; stroke-linecap:round; stroke-linejoin:round; stroke-width:3.6; stroke-opacity:1; fill:none" points="300,422.609 318.166,422.609 "/>
<polyline clip-path="url(#clip921)" style="stroke:#000000; stroke-linecap:round; stroke-linejoin:round; stroke-width:3.6; stroke-opacity:1; fill:none" points="300,301.304 318.166,301.304 "/>
<polyline clip-path="url(#clip921)" style="stroke:#000000; stroke-linecap:round; stroke-linejoin:round; stroke-width:3.6; stroke-opacity:1; fill:none" points="300,240.652 318.166,240.652 "/>
<polyline clip-path="url(#clip921)" style="stroke:#000000; stroke-linecap:round; stroke-linejoin:round; stroke-width:3.6; stroke-opacity:1; fill:none" points="300,180 318.166,180 "/>
<polyline clip-path="url(#clip921)" style="stroke:#000000; stroke-linecap:round; stroke-linejoin:round; stroke-width:3.6; stroke-opacity:1; fill:none" points="300,180 300,198.166 "/>
<polyline clip-path="url(#clip921)" style="stroke:#000000; stroke-linecap:round; stroke-linejoin:round; stroke-width:3.6; stroke-opacity:1; fill:none" points="488.571,180 488.571,198.166 "/>
<polyline clip-path="url(#clip921)" style="stroke:#000000; stroke-linecap:round; stroke-linejoin:round; stroke-width:3.6; stroke-opacity:1; fill:none" points="582.857,180 582.857,198.166 "/>
<polyline clip-path="url(#clip921)" style="stroke:#000000; stroke-linecap:round; stroke-linejoin:round; stroke-width:3.6; stroke-opacity:1; fill:none" points="677.143,180 677.143,198.166 "/>
<polyline clip-path="url(#clip921)" style="stroke:#000000; stroke-linecap:round; stroke-linejoin:round; stroke-width:3.6; stroke-opacity:1; fill:none" points="771.429,180 771.429,198.166 "/>
<polyline clip-path="url(#clip921)" style="stroke:#000000; stroke-linecap:round; stroke-linejoin:round; stroke-width:3.6; stroke-opacity:1; fill:none" points="960,180 960,198.166 "/>
<polyline clip-path="url(#clip921)" style="stroke:#000000; stroke-linecap:round; stroke-linejoin:round; stroke-width:3.6; stroke-opacity:1; fill:none" points="1054.29,180 1054.29,198.166 "/>
<polyline clip-path="url(#clip921)" style="stroke:#000000; stroke-linecap:round; stroke-linejoin:round; stroke-width:3.6; stroke-opacity:1; fill:none" points="1148.57,180 1148.57,198.166 "/>
<polyline clip-path="url(#clip921)" style="stroke:#000000; stroke-linecap:round; stroke-linejoin:round; stroke-width:3.6; stroke-opacity:1; fill:none" points="1242.86,180 1242.86,198.166 "/>
<polyline clip-path="url(#clip921)" style="stroke:#000000; stroke-linecap:round; stroke-linejoin:round; stroke-width:3.6; stroke-opacity:1; fill:none" points="1431.43,180 1431.43,198.166 "/>
<polyline clip-path="url(#clip921)" style="stroke:#000000; stroke-linecap:round; stroke-linejoin:round; stroke-width:3.6; stroke-opacity:1; fill:none" points="1525.71,180 1525.71,198.166 "/>
<polyline clip-path="url(#clip921)" style="stroke:#000000; stroke-linecap:round; stroke-linejoin:round; stroke-width:3.6; stroke-opacity:1; fill:none" points="1620,180 1620,198.166 "/>
<polyline clip-path="url(#clip921)" style="stroke:#000000; stroke-linecap:round; stroke-linejoin:round; stroke-width:3.6; stroke-opacity:1; fill:none" points="1714.29,180 1714.29,198.166 "/>
<polyline clip-path="url(#clip921)" style="stroke:#000000; stroke-linecap:round; stroke-linejoin:round; stroke-width:3.6; stroke-opacity:1; fill:none" points="1902.86,180 1902.86,198.166 "/>
<polyline clip-path="url(#clip921)" style="stroke:#000000; stroke-linecap:round; stroke-linejoin:round; stroke-width:3.6; stroke-opacity:1; fill:none" points="1997.14,180 1997.14,198.166 "/>
<polyline clip-path="url(#clip921)" style="stroke:#000000; stroke-linecap:round; stroke-linejoin:round; stroke-width:3.6; stroke-opacity:1; fill:none" points="2091.43,180 2091.43,198.166 "/>
<polyline clip-path="url(#clip921)" style="stroke:#000000; stroke-linecap:round; stroke-linejoin:round; stroke-width:3.6; stroke-opacity:1; fill:none" points="2185.71,180 2185.71,198.166 "/>
<polyline clip-path="url(#clip921)" style="stroke:#000000; stroke-linecap:round; stroke-linejoin:round; stroke-width:3.6; stroke-opacity:1; fill:none" points="300,1575 300,1556.83 "/>
<polyline clip-path="url(#clip921)" style="stroke:#000000; stroke-linecap:round; stroke-linejoin:round; stroke-width:3.6; stroke-opacity:1; fill:none" points="488.571,1575 488.571,1556.83 "/>
<polyline clip-path="url(#clip921)" style="stroke:#000000; stroke-linecap:round; stroke-linejoin:round; stroke-width:3.6; stroke-opacity:1; fill:none" points="582.857,1575 582.857,1556.83 "/>
<polyline clip-path="url(#clip921)" style="stroke:#000000; stroke-linecap:round; stroke-linejoin:round; stroke-width:3.6; stroke-opacity:1; fill:none" points="677.143,1575 677.143,1556.83 "/>
<polyline clip-path="url(#clip921)" style="stroke:#000000; stroke-linecap:round; stroke-linejoin:round; stroke-width:3.6; stroke-opacity:1; fill:none" points="771.429,1575 771.429,1556.83 "/>
<polyline clip-path="url(#clip921)" style="stroke:#000000; stroke-linecap:round; stroke-linejoin:round; stroke-width:3.6; stroke-opacity:1; fill:none" points="960,1575 960,1556.83 "/>
<polyline clip-path="url(#clip921)" style="stroke:#000000; stroke-linecap:round; stroke-linejoin:round; stroke-width:3.6; stroke-opacity:1; fill:none" points="1054.29,1575 1054.29,1556.83 "/>
<polyline clip-path="url(#clip921)" style="stroke:#000000; stroke-linecap:round; stroke-linejoin:round; stroke-width:3.6; stroke-opacity:1; fill:none" points="1148.57,1575 1148.57,1556.83 "/>
<polyline clip-path="url(#clip921)" style="stroke:#000000; stroke-linecap:round; stroke-linejoin:round; stroke-width:3.6; stroke-opacity:1; fill:none" points="1242.86,1575 1242.86,1556.83 "/>
<polyline clip-path="url(#clip921)" style="stroke:#000000; stroke-linecap:round; stroke-linejoin:round; stroke-width:3.6; stroke-opacity:1; fill:none" points="1431.43,1575 1431.43,1556.83 "/>
<polyline clip-path="url(#clip921)" style="stroke:#000000; stroke-linecap:round; stroke-linejoin:round; stroke-width:3.6; stroke-opacity:1; fill:none" points="1525.71,1575 1525.71,1556.83 "/>
<polyline clip-path="url(#clip921)" style="stroke:#000000; stroke-linecap:round; stroke-linejoin:round; stroke-width:3.6; stroke-opacity:1; fill:none" points="1620,1575 1620,1556.83 "/>
<polyline clip-path="url(#clip921)" style="stroke:#000000; stroke-linecap:round; stroke-linejoin:round; stroke-width:3.6; stroke-opacity:1; fill:none" points="1714.29,1575 1714.29,1556.83 "/>
<polyline clip-path="url(#clip921)" style="stroke:#000000; stroke-linecap:round; stroke-linejoin:round; stroke-width:3.6; stroke-opacity:1; fill:none" points="1902.86,1575 1902.86,1556.83 "/>
<polyline clip-path="url(#clip921)" style="stroke:#000000; stroke-linecap:round; stroke-linejoin:round; stroke-width:3.6; stroke-opacity:1; fill:none" points="1997.14,1575 1997.14,1556.83 "/>
<polyline clip-path="url(#clip921)" style="stroke:#000000; stroke-linecap:round; stroke-linejoin:round; stroke-width:3.6; stroke-opacity:1; fill:none" points="2091.43,1575 2091.43,1556.83 "/>
<polyline clip-path="url(#clip921)" style="stroke:#000000; stroke-linecap:round; stroke-linejoin:round; stroke-width:3.6; stroke-opacity:1; fill:none" points="2185.71,1575 2185.71,1556.83 "/>
<polyline clip-path="url(#clip921)" style="stroke:#000000; stroke-linecap:round; stroke-linejoin:round; stroke-width:3.6; stroke-opacity:1; fill:none" points="2280,1575 2280,180 "/>
<polyline clip-path="url(#clip921)" style="stroke:#000000; stroke-linecap:round; stroke-linejoin:round; stroke-width:3.6; stroke-opacity:1; fill:none" points="300,1575 300,180 "/>
<polyline clip-path="url(#clip921)" style="stroke:#000000; stroke-linecap:round; stroke-linejoin:round; stroke-width:3.6; stroke-opacity:1; fill:none" points="300,180 2280,180 "/>
<polyline clip-path="url(#clip921)" style="stroke:#000000; stroke-linecap:round; stroke-linejoin:round; stroke-width:3.6; stroke-opacity:1; fill:none" points="300,1575 2280,1575 "/>
<g clip-path="url(#clip921)">
<text style="fill:#000000; fill-opacity:1; font-family:Arial,Helvetica Neue,Helvetica,sans-serif; font-size:60px; text-anchor:start;" transform="rotate(0, 248.074, 1592.22)" x="248.074" y="1592.22">0</text>
</g>
<g clip-path="url(#clip921)">
<text style="fill:#000000; fill-opacity:1; font-family:Arial,Helvetica Neue,Helvetica,sans-serif; font-size:60px; text-anchor:start;" transform="rotate(0, 163.673, 1288.96)" x="163.673" y="1288.96">0.05</text>
</g>
<g clip-path="url(#clip921)">
<text style="fill:#000000; fill-opacity:1; font-family:Arial,Helvetica Neue,Helvetica,sans-serif; font-size:60px; text-anchor:start;" transform="rotate(0, 163.673, 985.699)" x="163.673" y="985.699">0.10</text>
</g>
<g clip-path="url(#clip921)">
<text style="fill:#000000; fill-opacity:1; font-family:Arial,Helvetica Neue,Helvetica,sans-serif; font-size:60px; text-anchor:start;" transform="rotate(0, 163.673, 682.438)" x="163.673" y="682.438">0.15</text>
</g>
<g clip-path="url(#clip921)">
<text style="fill:#000000; fill-opacity:1; font-family:Arial,Helvetica Neue,Helvetica,sans-serif; font-size:60px; text-anchor:start;" transform="rotate(0, 163.673, 379.177)" x="163.673" y="379.177">0.20</text>
</g>
<g clip-path="url(#clip921)">
<text style="fill:#000000; fill-opacity:1; font-family:Arial,Helvetica Neue,Helvetica,sans-serif; font-size:60px; text-anchor:start;" transform="rotate(0, 377.405, 1647.23)" x="377.405" y="1647.23">0</text>
</g>
<g clip-path="url(#clip921)">
<text style="fill:#000000; fill-opacity:1; font-family:Arial,Helvetica Neue,Helvetica,sans-serif; font-size:60px; text-anchor:start;" transform="rotate(0, 848.834, 1647.23)" x="848.834" y="1647.23">5</text>
</g>
<g clip-path="url(#clip921)">
<text style="fill:#000000; fill-opacity:1; font-family:Arial,Helvetica Neue,Helvetica,sans-serif; font-size:60px; text-anchor:start;" transform="rotate(0, 1303.38, 1647.23)" x="1303.38" y="1647.23">10</text>
</g>
<g clip-path="url(#clip921)">
<text style="fill:#000000; fill-opacity:1; font-family:Arial,Helvetica Neue,Helvetica,sans-serif; font-size:60px; text-anchor:start;" transform="rotate(0, 1774.81, 1647.23)" x="1774.81" y="1647.23">15</text>
</g>
<g clip-path="url(#clip921)">
<text style="fill:#000000; fill-opacity:1; font-family:Arial,Helvetica Neue,Helvetica,sans-serif; font-size:60px; text-anchor:start;" transform="rotate(0, 2246.24, 1647.23)" x="2246.24" y="1647.23">20</text>
</g>
<g clip-path="url(#clip921)">
<text style="fill:#000000; fill-opacity:1; font-family:Arial,Helvetica Neue,Helvetica,sans-serif; font-size:60px; text-anchor:middle;" transform="rotate(0, 1290, 52.8)" x="1290" y="52.8">NoncentralT(2, 3)</text>
</g>
<g clip-path="url(#clip921)">
<text style="fill:#000000; fill-opacity:1; font-family:Arial,Helvetica Neue,Helvetica,sans-serif; font-size:60px; text-anchor:middle;" transform="rotate(0, 1290, 1769.4)" x="1290" y="1769.4">x</text>
</g>
<g clip-path="url(#clip921)">
<text style="fill:#000000; fill-opacity:1; font-family:Arial,Helvetica Neue,Helvetica,sans-serif; font-size:60px; text-anchor:middle;" transform="rotate(-90, 74.5986, 877.5)" x="74.5986" y="877.5">density</text>
</g>
<polyline clip-path="url(#clip920)" style="stroke:#00528a; stroke-linecap:round; stroke-linejoin:round; stroke-width:7.2; stroke-opacity:1; fill:none" points="300,1573.56 306.644,1573.32 313.289,1573.03 319.933,1572.67 326.577,1572.23 333.221,1571.68 339.866,1570.99 346.51,1570.13 353.154,1569.05 359.799,1567.67 366.443,1565.9 373.087,1563.65 379.732,1560.75 386.376,1557.03 393.02,1552.24 399.664,1546.08 406.309,1538.21 412.953,1528.18 419.597,1515.52 426.242,1499.66 432.886,1480.03 439.53,1456.03 446.174,1427.13 452.819,1392.85 459.463,1352.86 466.107,1307.01 472.752,1255.39 479.396,1198.29 486.04,1136.28 492.685,1070.13 499.329,1000.81 505.973,929.404 512.617,857.099 519.262,785.09 525.906,714.536 532.55,646.515 539.195,581.98 545.839,521.738 552.483,466.435 559.128,416.552 565.772,372.41 572.416,334.18 579.06,301.902 585.705,275.499 592.349,254.801 598.993,239.561 605.638,229.474 612.282,224.194 618.926,223.351 625.57,226.557 632.215,233.422 638.859,243.564 645.503,256.607 652.148,272.193 658.792,289.987 665.436,309.669 672.081,330.949 678.725,353.557 685.369,377.247 692.013,401.797 698.658,427.006 705.302,452.697 711.946,478.708 718.591,504.901 725.235,531.151 731.879,557.351 738.523,583.407 745.168,609.238 751.812,634.777 758.456,659.964 765.101,684.751 771.745,709.098 778.389,732.972 785.034,756.346 791.678,779.2 798.322,801.519 804.966,823.291 811.611,844.51 818.255,865.172 824.899,885.277 831.544,904.825 838.188,923.821 844.832,942.271 851.477,960.182 858.121,977.562 864.765,994.42 871.409,1010.77 878.054,1026.62 884.698,1041.97 891.342,1056.86 897.987,1071.28 904.631,1085.24 911.275,1098.77 917.919,1111.87 924.564,1124.56 931.208,1136.84 937.852,1148.74 944.497,1160.25 951.141,1171.41 957.785,1182.2 964.43,1192.66 971.074,1202.78 977.718,1212.59 984.362,1222.08 991.007,1231.28 997.651,1240.19 1004.3,1248.81 1010.94,1257.17 1017.58,1265.27 1024.23,1273.11 1030.87,1280.71 1037.52,1288.08 1044.16,1295.22 1050.81,1302.14 1057.45,1308.85 1064.09,1315.36 1070.74,1321.67 1077.38,1327.79 1084.03,1333.72 1090.67,1339.48 1097.32,1345.06 1103.96,1350.48 1110.6,1355.74 1117.25,1360.85 1123.89,1365.81 1130.54,1370.62 1137.18,1375.29 1143.83,1379.83 1150.47,1384.24 1157.11,1388.52 1163.76,1392.68 1170.4,1396.73 1177.05,1400.66 1183.69,1404.48 1190.34,1408.19 1196.98,1411.8 1203.62,1415.31 1210.27,1418.73 1216.91,1422.05 1223.56,1425.28 1230.2,1428.43 1236.85,1431.49 1243.49,1434.47 1250.13,1437.37 1256.78,1440.19 1263.42,1442.94 1270.07,1445.62 1276.71,1448.23 1283.36,1450.77 1290,1453.24 1296.64,1455.66 1303.29,1458.01 1309.93,1460.3 1316.58,1462.53 1323.22,1464.71 1329.87,1466.83 1336.51,1468.9 1343.15,1470.92 1349.8,1472.89 1356.44,1474.81 1363.09,1476.69 1369.73,1478.52 1376.38,1480.3 1383.02,1482.04 1389.66,1483.75 1396.31,1485.41 1402.95,1487.03 1409.6,1488.61 1416.24,1490.16 1422.89,1491.67 1429.53,1493.15 1436.17,1494.59 1442.82,1496 1449.46,1497.37 1456.11,1498.72 1462.75,1500.04 1469.4,1501.32 1476.04,1502.58 1482.68,1503.81 1489.33,1505.01 1495.97,1506.19 1502.62,1507.34 1509.26,1508.46 1515.91,1509.57 1522.55,1510.64 1529.19,1511.7 1535.84,1512.73 1542.48,1513.74 1549.13,1514.73 1555.77,1515.69 1562.42,1516.64 1569.06,1517.57 1575.7,1518.48 1582.35,1519.37 1588.99,1520.24 1595.64,1521.09 1602.28,1521.93 1608.93,1522.75 1615.57,1523.55 1622.21,1524.34 1628.86,1525.11 1635.5,1525.86 1642.15,1526.6 1648.79,1527.33 1655.44,1528.04 1662.08,1528.74 1668.72,1529.42 1675.37,1530.09 1682.01,1530.75 1688.66,1531.4 1695.3,1532.03 1701.95,1532.65 1708.59,1533.26 1715.23,1533.86 1721.88,1534.45 1728.52,1535.02 1735.17,1535.59 1741.81,1536.14 1748.46,1536.69 1755.1,1537.22 1761.74,1537.74 1768.39,1538.26 1775.03,1538.76 1781.68,1539.26 1788.32,1539.75 1794.97,1540.23 1801.61,1540.7 1808.26,1541.16 1814.9,1541.61 1821.54,1542.06 1828.19,1542.5 1834.83,1542.93 1841.48,1543.35 1848.12,1543.77 1854.77,1544.17 1861.41,1544.58 1868.05,1544.97 1874.7,1545.36 1881.34,1545.74 1887.99,1546.11 1894.63,1546.48 1901.28,1546.84 1907.92,1547.2 1914.56,1547.55 1921.21,1547.9 1927.85,1548.23 1934.5,1548.57 1941.14,1548.89 1947.79,1549.22 1954.43,1549.53 1961.07,1549.85 1967.72,1550.15 1974.36,1550.46 1981.01,1550.75 1987.65,1551.05 1994.3,1551.33 2000.94,1551.62 2007.58,1551.89 2014.23,1552.17 2020.87,1552.44 2027.52,1552.71 2034.16,1552.97 2040.81,1553.23 2047.45,1553.48 2054.09,1553.73 2060.74,1553.97 2067.38,1554.22 2074.03,1554.46 2080.67,1554.69 2087.32,1554.92 2093.96,1555.15 2100.6,1555.37 2107.25,1555.6 2113.89,1555.81 2120.54,1556.03 2127.18,1556.24 2133.83,1556.45 2140.47,1556.65 2147.11,1556.86 2153.76,1557.06 2160.4,1557.25 2167.05,1557.45 2173.69,1557.64 2180.34,1557.82 2186.98,1558.01 2193.62,1558.19 2200.27,1558.37 2206.91,1558.55 2213.56,1558.73 2220.2,1558.9 2226.85,1559.07 2233.49,1559.24 2240.13,1559.4 2246.78,1559.57 2253.42,1559.73 2260.07,1559.89 2266.71,1560.04 2273.36,1560.2 2280,1560.35 "/>
</svg>
