<?xml version="1.0" encoding="utf-8"?>
<svg xmlns="http://www.w3.org/2000/svg" xmlns:xlink="http://www.w3.org/1999/xlink" width="600" height="450" viewBox="0 0 2400 1800">
<defs>
  <clipPath id="clip470">
    <rect x="300" y="180" width="1981" height="1396"/>
  </clipPath>
</defs>
<defs>
  <clipPath id="clip471">
    <rect x="0" y="0" width="2400" height="1800"/>
  </clipPath>
</defs>
<path clip-path="url(#clip471)" d="M0 1800 L2400 1800 L2400 -1400 L0 -1400  Z" fill="#ffffff" fill-rule="evenodd" fill-opacity="1"/>
<polyline clip-path="url(#clip471)" style="stroke:#000000; stroke-linecap:round; stroke-linejoin:round; stroke-width:3.6; stroke-opacity:1; fill:none" points="2280,1575 2243.67,1575 "/>
<polyline clip-path="url(#clip471)" style="stroke:#000000; stroke-linecap:round; stroke-linejoin:round; stroke-width:3.6; stroke-opacity:1; fill:none" points="2280,1139.06 2243.67,1139.06 "/>
<polyline clip-path="url(#clip471)" style="stroke:#000000; stroke-linecap:round; stroke-linejoin:round; stroke-width:3.6; stroke-opacity:1; fill:none" points="2280,703.125 2243.67,703.125 "/>
<polyline clip-path="url(#clip471)" style="stroke:#000000; stroke-linecap:round; stroke-linejoin:round; stroke-width:3.6; stroke-opacity:1; fill:none" points="2280,267.188 2243.67,267.188 "/>
<polyline clip-path="url(#clip471)" style="stroke:#000000; stroke-linecap:round; stroke-linejoin:round; stroke-width:3.6; stroke-opacity:1; fill:none" points="300,1575 336.331,1575 "/>
<polyline clip-path="url(#clip471)" style="stroke:#000000; stroke-linecap:round; stroke-linejoin:round; stroke-width:3.6; stroke-opacity:1; fill:none" points="300,1139.06 336.331,1139.06 "/>
<polyline clip-path="url(#clip471)" style="stroke:#000000; stroke-linecap:round; stroke-linejoin:round; stroke-width:3.6; stroke-opacity:1; fill:none" points="300,703.125 336.331,703.125 "/>
<polyline clip-path="url(#clip471)" style="stroke:#000000; stroke-linecap:round; stroke-linejoin:round; stroke-width:3.6; stroke-opacity:1; fill:none" points="300,267.188 336.331,267.188 "/>
<polyline clip-path="url(#clip471)" style="stroke:#000000; stroke-linecap:round; stroke-linejoin:round; stroke-width:3.6; stroke-opacity:1; fill:none" points="300,180 300,216.331 "/>
<polyline clip-path="url(#clip471)" style="stroke:#000000; stroke-linecap:round; stroke-linejoin:round; stroke-width:3.6; stroke-opacity:1; fill:none" points="696,180 696,216.331 "/>
<polyline clip-path="url(#clip471)" style="stroke:#000000; stroke-linecap:round; stroke-linejoin:round; stroke-width:3.6; stroke-opacity:1; fill:none" points="1092,180 1092,216.331 "/>
<polyline clip-path="url(#clip471)" style="stroke:#000000; stroke-linecap:round; stroke-linejoin:round; stroke-width:3.6; stroke-opacity:1; fill:none" points="1488,180 1488,216.331 "/>
<polyline clip-path="url(#clip471)" style="stroke:#000000; stroke-linecap:round; stroke-linejoin:round; stroke-width:3.6; stroke-opacity:1; fill:none" points="1884,180 1884,216.331 "/>
<polyline clip-path="url(#clip471)" style="stroke:#000000; stroke-linecap:round; stroke-linejoin:round; stroke-width:3.6; stroke-opacity:1; fill:none" points="2280,180 2280,216.331 "/>
<polyline clip-path="url(#clip471)" style="stroke:#000000; stroke-linecap:round; stroke-linejoin:round; stroke-width:3.6; stroke-opacity:1; fill:none" points="300,1575 300,1538.67 "/>
<polyline clip-path="url(#clip471)" style="stroke:#000000; stroke-linecap:round; stroke-linejoin:round; stroke-width:3.6; stroke-opacity:1; fill:none" points="696,1575 696,1538.67 "/>
<polyline clip-path="url(#clip471)" style="stroke:#000000; stroke-linecap:round; stroke-linejoin:round; stroke-width:3.6; stroke-opacity:1; fill:none" points="1092,1575 1092,1538.67 "/>
<polyline clip-path="url(#clip471)" style="stroke:#000000; stroke-linecap:round; stroke-linejoin:round; stroke-width:3.6; stroke-opacity:1; fill:none" points="1488,1575 1488,1538.67 "/>
<polyline clip-path="url(#clip471)" style="stroke:#000000; stroke-linecap:round; stroke-linejoin:round; stroke-width:3.6; stroke-opacity:1; fill:none" points="1884,1575 1884,1538.67 "/>
<polyline clip-path="url(#clip471)" style="stroke:#000000; stroke-linecap:round; stroke-linejoin:round; stroke-width:3.6; stroke-opacity:1; fill:none" points="2280,1575 2280,1538.67 "/>
<polyline clip-path="url(#clip471)" style="stroke:#000000; stroke-linecap:round; stroke-linejoin:round; stroke-width:3.6; stroke-opacity:1; fill:none" points="2280,1487.81 2261.83,1487.81 "/>
<polyline clip-path="url(#clip471)" style="stroke:#000000; stroke-linecap:round; stroke-linejoin:round; stroke-width:3.6; stroke-opacity:1; fill:none" points="2280,1400.62 2261.83,1400.62 "/>
<polyline clip-path="url(#clip471)" style="stroke:#000000; stroke-linecap:round; stroke-linejoin:round; stroke-width:3.6; stroke-opacity:1; fill:none" points="2280,1313.44 2261.83,1313.44 "/>
<polyline clip-path="url(#clip471)" style="stroke:#000000; stroke-linecap:round; stroke-linejoin:round; stroke-width:3.6; stroke-opacity:1; fill:none" points="2280,1226.25 2261.83,1226.25 "/>
<polyline clip-path="url(#clip471)" style="stroke:#000000; stroke-linecap:round; stroke-linejoin:round; stroke-width:3.6; stroke-opacity:1; fill:none" points="2280,1051.88 2261.83,1051.88 "/>
<polyline clip-path="url(#clip471)" style="stroke:#000000; stroke-linecap:round; stroke-linejoin:round; stroke-width:3.6; stroke-opacity:1; fill:none" points="2280,964.687 2261.83,964.687 "/>
<polyline clip-path="url(#clip471)" style="stroke:#000000; stroke-linecap:round; stroke-linejoin:round; stroke-width:3.6; stroke-opacity:1; fill:none" points="2280,877.5 2261.83,877.5 "/>
<polyline clip-path="url(#clip471)" style="stroke:#000000; stroke-linecap:round; stroke-linejoin:round; stroke-width:3.6; stroke-opacity:1; fill:none" points="2280,790.312 2261.83,790.312 "/>
<polyline clip-path="url(#clip471)" style="stroke:#000000; stroke-linecap:round; stroke-linejoin:round; stroke-width:3.6; stroke-opacity:1; fill:none" points="2280,615.938 2261.83,615.938 "/>
<polyline clip-path="url(#clip471)" style="stroke:#000000; stroke-linecap:round; stroke-linejoin:round; stroke-width:3.6; stroke-opacity:1; fill:none" points="2280,528.75 2261.83,528.75 "/>
<polyline clip-path="url(#clip471)" style="stroke:#000000; stroke-linecap:round; stroke-linejoin:round; stroke-width:3.6; stroke-opacity:1; fill:none" points="2280,441.562 2261.83,441.562 "/>
<polyline clip-path="url(#clip471)" style="stroke:#000000; stroke-linecap:round; stroke-linejoin:round; stroke-width:3.6; stroke-opacity:1; fill:none" points="2280,354.375 2261.83,354.375 "/>
<polyline clip-path="url(#clip471)" style="stroke:#000000; stroke-linecap:round; stroke-linejoin:round; stroke-width:3.6; stroke-opacity:1; fill:none" points="2280,180 2261.83,180 "/>
<polyline clip-path="url(#clip471)" style="stroke:#000000; stroke-linecap:round; stroke-linejoin:round; stroke-width:3.6; stroke-opacity:1; fill:none" points="300,1487.81 318.166,1487.81 "/>
<polyline clip-path="url(#clip471)" style="stroke:#000000; stroke-linecap:round; stroke-linejoin:round; stroke-width:3.6; stroke-opacity:1; fill:none" points="300,1400.62 318.166,1400.62 "/>
<polyline clip-path="url(#clip471)" style="stroke:#000000; stroke-linecap:round; stroke-linejoin:round; stroke-width:3.6; stroke-opacity:1; fill:none" points="300,1313.44 318.166,1313.44 "/>
<polyline clip-path="url(#clip471)" style="stroke:#000000; stroke-linecap:round; stroke-linejoin:round; stroke-width:3.6; stroke-opacity:1; fill:none" points="300,1226.25 318.166,1226.25 "/>
<polyline clip-path="url(#clip471)" style="stroke:#000000; stroke-linecap:round; stroke-linejoin:round; stroke-width:3.6; stroke-opacity:1; fill:none" points="300,1051.88 318.166,1051.88 "/>
<polyline clip-path="url(#clip471)" style="stroke:#000000; stroke-linecap:round; stroke-linejoin:round; stroke-width:3.6; stroke-opacity:1; fill:none" points="300,964.687 318.166,964.687 "/>
<polyline clip-path="url(#clip471)" style="stroke:#000000; stroke-linecap:round; stroke-linejoin:round; stroke-width:3.6; stroke-opacity:1; fill:none" points="300,877.5 318.166,877.5 "/>
<polyline clip-path="url(#clip471)" style="stroke:#000000; stroke-linecap:round; stroke-linejoin:round; stroke-width:3.6; stroke-opacity:1; fill:none" points="300,790.312 318.166,790.312 "/>
<polyline clip-path="url(#clip471)" style="stroke:#000000; stroke-linecap:round; stroke-linejoin:round; stroke-width:3.6; stroke-opacity:1; fill:none" points="300,615.938 318.166,615.938 "/>
<polyline clip-path="url(#clip471)" style="stroke:#000000; stroke-linecap:round; stroke-linejoin:round; stroke-width:3.6; stroke-opacity:1; fill:none" points="300,528.75 318.166,528.75 "/>
<polyline clip-path="url(#clip471)" style="stroke:#000000; stroke-linecap:round; stroke-linejoin:round; stroke-width:3.6; stroke-opacity:1; fill:none" points="300,441.562 318.166,441.562 "/>
<polyline clip-path="url(#clip471)" style="stroke:#000000; stroke-linecap:round; stroke-linejoin:round; stroke-width:3.6; stroke-opacity:1; fill:none" points="300,354.375 318.166,354.375 "/>
<polyline clip-path="url(#clip471)" style="stroke:#000000; stroke-linecap:round; stroke-linejoin:round; stroke-width:3.6; stroke-opacity:1; fill:none" points="300,180 318.166,180 "/>
<polyline clip-path="url(#clip471)" style="stroke:#000000; stroke-linecap:round; stroke-linejoin:round; stroke-width:3.6; stroke-opacity:1; fill:none" points="379.2,180 379.2,198.166 "/>
<polyline clip-path="url(#clip471)" style="stroke:#000000; stroke-linecap:round; stroke-linejoin:round; stroke-width:3.6; stroke-opacity:1; fill:none" points="458.4,180 458.4,198.166 "/>
<polyline clip-path="url(#clip471)" style="stroke:#000000; stroke-linecap:round; stroke-linejoin:round; stroke-width:3.6; stroke-opacity:1; fill:none" points="537.6,180 537.6,198.166 "/>
<polyline clip-path="url(#clip471)" style="stroke:#000000; stroke-linecap:round; stroke-linejoin:round; stroke-width:3.6; stroke-opacity:1; fill:none" points="616.8,180 616.8,198.166 "/>
<polyline clip-path="url(#clip471)" style="stroke:#000000; stroke-linecap:round; stroke-linejoin:round; stroke-width:3.6; stroke-opacity:1; fill:none" points="775.2,180 775.2,198.166 "/>
<polyline clip-path="url(#clip471)" style="stroke:#000000; stroke-linecap:round; stroke-linejoin:round; stroke-width:3.6; stroke-opacity:1; fill:none" points="854.4,180 854.4,198.166 "/>
<polyline clip-path="url(#clip471)" style="stroke:#000000; stroke-linecap:round; stroke-linejoin:round; stroke-width:3.6; stroke-opacity:1; fill:none" points="933.6,180 933.6,198.166 "/>
<polyline clip-path="url(#clip471)" style="stroke:#000000; stroke-linecap:round; stroke-linejoin:round; stroke-width:3.6; stroke-opacity:1; fill:none" points="1012.8,180 1012.8,198.166 "/>
<polyline clip-path="url(#clip471)" style="stroke:#000000; stroke-linecap:round; stroke-linejoin:round; stroke-width:3.6; stroke-opacity:1; fill:none" points="1171.2,180 1171.2,198.166 "/>
<polyline clip-path="url(#clip471)" style="stroke:#000000; stroke-linecap:round; stroke-linejoin:round; stroke-width:3.6; stroke-opacity:1; fill:none" points="1250.4,180 1250.4,198.166 "/>
<polyline clip-path="url(#clip471)" style="stroke:#000000; stroke-linecap:round; stroke-linejoin:round; stroke-width:3.6; stroke-opacity:1; fill:none" points="1329.6,180 1329.6,198.166 "/>
<polyline clip-path="url(#clip471)" style="stroke:#000000; stroke-linecap:round; stroke-linejoin:round; stroke-width:3.6; stroke-opacity:1; fill:none" points="1408.8,180 1408.8,198.166 "/>
<polyline clip-path="url(#clip471)" style="stroke:#000000; stroke-linecap:round; stroke-linejoin:round; stroke-width:3.6; stroke-opacity:1; fill:none" points="1567.2,180 1567.2,198.166 "/>
<polyline clip-path="url(#clip471)" style="stroke:#000000; stroke-linecap:round; stroke-linejoin:round; stroke-width:3.6; stroke-opacity:1; fill:none" points="1646.4,180 1646.4,198.166 "/>
<polyline clip-path="url(#clip471)" style="stroke:#000000; stroke-linecap:round; stroke-linejoin:round; stroke-width:3.6; stroke-opacity:1; fill:none" points="1725.6,180 1725.6,198.166 "/>
<polyline clip-path="url(#clip471)" style="stroke:#000000; stroke-linecap:round; stroke-linejoin:round; stroke-width:3.6; stroke-opacity:1; fill:none" points="1804.8,180 1804.8,198.166 "/>
<polyline clip-path="url(#clip471)" style="stroke:#000000; stroke-linecap:round; stroke-linejoin:round; stroke-width:3.6; stroke-opacity:1; fill:none" points="1963.2,180 1963.2,198.166 "/>
<polyline clip-path="url(#clip471)" style="stroke:#000000; stroke-linecap:round; stroke-linejoin:round; stroke-width:3.6; stroke-opacity:1; fill:none" points="2042.4,180 2042.4,198.166 "/>
<polyline clip-path="url(#clip471)" style="stroke:#000000; stroke-linecap:round; stroke-linejoin:round; stroke-width:3.6; stroke-opacity:1; fill:none" points="2121.6,180 2121.6,198.166 "/>
<polyline clip-path="url(#clip471)" style="stroke:#000000; stroke-linecap:round; stroke-linejoin:round; stroke-width:3.6; stroke-opacity:1; fill:none" points="2200.8,180 2200.8,198.166 "/>
<polyline clip-path="url(#clip471)" style="stroke:#000000; stroke-linecap:round; stroke-linejoin:round; stroke-width:3.6; stroke-opacity:1; fill:none" points="379.2,1575 379.2,1556.83 "/>
<polyline clip-path="url(#clip471)" style="stroke:#000000; stroke-linecap:round; stroke-linejoin:round; stroke-width:3.6; stroke-opacity:1; fill:none" points="458.4,1575 458.4,1556.83 "/>
<polyline clip-path="url(#clip471)" style="stroke:#000000; stroke-linecap:round; stroke-linejoin:round; stroke-width:3.6; stroke-opacity:1; fill:none" points="537.6,1575 537.6,1556.83 "/>
<polyline clip-path="url(#clip471)" style="stroke:#000000; stroke-linecap:round; stroke-linejoin:round; stroke-width:3.6; stroke-opacity:1; fill:none" points="616.8,1575 616.8,1556.83 "/>
<polyline clip-path="url(#clip471)" style="stroke:#000000; stroke-linecap:round; stroke-linejoin:round; stroke-width:3.6; stroke-opacity:1; fill:none" points="775.2,1575 775.2,1556.83 "/>
<polyline clip-path="url(#clip471)" style="stroke:#000000; stroke-linecap:round; stroke-linejoin:round; stroke-width:3.6; stroke-opacity:1; fill:none" points="854.4,1575 854.4,1556.83 "/>
<polyline clip-path="url(#clip471)" style="stroke:#000000; stroke-linecap:round; stroke-linejoin:round; stroke-width:3.6; stroke-opacity:1; fill:none" points="933.6,1575 933.6,1556.83 "/>
<polyline clip-path="url(#clip471)" style="stroke:#000000; stroke-linecap:round; stroke-linejoin:round; stroke-width:3.6; stroke-opacity:1; fill:none" points="1012.8,1575 1012.8,1556.83 "/>
<polyline clip-path="url(#clip471)" style="stroke:#000000; stroke-linecap:round; stroke-linejoin:round; stroke-width:3.6; stroke-opacity:1; fill:none" points="1171.2,1575 1171.2,1556.83 "/>
<polyline clip-path="url(#clip471)" style="stroke:#000000; stroke-linecap:round; stroke-linejoin:round; stroke-width:3.6; stroke-opacity:1; fill:none" points="1250.4,1575 1250.4,1556.83 "/>
<polyline clip-path="url(#clip471)" style="stroke:#000000; stroke-linecap:round; stroke-linejoin:round; stroke-width:3.6; stroke-opacity:1; fill:none" points="1329.6,1575 1329.6,1556.83 "/>
<polyline clip-path="url(#clip471)" style="stroke:#000000; stroke-linecap:round; stroke-linejoin:round; stroke-width:3.6; stroke-opacity:1; fill:none" points="1408.8,1575 1408.8,1556.83 "/>
<polyline clip-path="url(#clip471)" style="stroke:#000000; stroke-linecap:round; stroke-linejoin:round; stroke-width:3.6; stroke-opacity:1; fill:none" points="1567.2,1575 1567.2,1556.83 "/>
<polyline clip-path="url(#clip471)" style="stroke:#000000; stroke-linecap:round; stroke-linejoin:round; stroke-width:3.6; stroke-opacity:1; fill:none" points="1646.4,1575 1646.4,1556.83 "/>
<polyline clip-path="url(#clip471)" style="stroke:#000000; stroke-linecap:round; stroke-linejoin:round; stroke-width:3.6; stroke-opacity:1; fill:none" points="1725.6,1575 1725.6,1556.83 "/>
<polyline clip-path="url(#clip471)" style="stroke:#000000; stroke-linecap:round; stroke-linejoin:round; stroke-width:3.6; stroke-opacity:1; fill:none" points="1804.8,1575 1804.8,1556.83 "/>
<polyline clip-path="url(#clip471)" style="stroke:#000000; stroke-linecap:round; stroke-linejoin:round; stroke-width:3.6; stroke-opacity:1; fill:none" points="1963.2,1575 1963.2,1556.83 "/>
<polyline clip-path="url(#clip471)" style="stroke:#000000; stroke-linecap:round; stroke-linejoin:round; stroke-width:3.6; stroke-opacity:1; fill:none" points="2042.4,1575 2042.4,1556.83 "/>
<polyline clip-path="url(#clip471)" style="stroke:#000000; stroke-linecap:round; stroke-linejoin:round; stroke-width:3.6; stroke-opacity:1; fill:none" points="2121.6,1575 2121.6,1556.83 "/>
<polyline clip-path="url(#clip471)" style="stroke:#000000; stroke-linecap:round; stroke-linejoin:round; stroke-width:3.6; stroke-opacity:1; fill:none" points="2200.8,1575 2200.8,1556.83 "/>
<polyline clip-path="url(#clip471)" style="stroke:#000000; stroke-linecap:round; stroke-linejoin:round; stroke-width:3.6; stroke-opacity:1; fill:none" points="2280,1575 2280,180 "/>
<polyline clip-path="url(#clip471)" style="stroke:#000000; stroke-linecap:round; stroke-linejoin:round; stroke-width:3.6; stroke-opacity:1; fill:none" points="300,1575 300,180 "/>
<polyline clip-path="url(#clip471)" style="stroke:#000000; stroke-linecap:round; stroke-linejoin:round; stroke-width:3.6; stroke-opacity:1; fill:none" points="300,180 2280,180 "/>
<polyline clip-path="url(#clip471)" style="stroke:#000000; stroke-linecap:round; stroke-linejoin:round; stroke-width:3.6; stroke-opacity:1; fill:none" points="300,1575 2280,1575 "/>
<g clip-path="url(#clip471)">
<text style="fill:#000000; fill-opacity:1; font-family:Arial,Helvetica Neue,Helvetica,sans-serif; font-size:60px; text-anchor:start;" transform="rotate(0, 248.074, 1592.22)" x="248.074" y="1592.22">0</text>
</g>
<g clip-path="url(#clip471)">
<text style="fill:#000000; fill-opacity:1; font-family:Arial,Helvetica Neue,Helvetica,sans-serif; font-size:60px; text-anchor:start;" transform="rotate(0, 197.433, 1156.28)" x="197.433" y="1156.28">0.5</text>
</g>
<g clip-path="url(#clip471)">
<text style="fill:#000000; fill-opacity:1; font-family:Arial,Helvetica Neue,Helvetica,sans-serif; font-size:60px; text-anchor:start;" transform="rotate(0, 197.433, 720.346)" x="197.433" y="720.346">1.0</text>
</g>
<g clip-path="url(#clip471)">
<text style="fill:#000000; fill-opacity:1; font-family:Arial,Helvetica Neue,Helvetica,sans-serif; font-size:60px; text-anchor:start;" transform="rotate(0, 197.433, 284.408)" x="197.433" y="284.408">1.5</text>
</g>
<g clip-path="url(#clip471)">
<text style="fill:#000000; fill-opacity:1; font-family:Arial,Helvetica Neue,Helvetica,sans-serif; font-size:60px; text-anchor:start;" transform="rotate(0, 283.12, 1647.23)" x="283.12" y="1647.23">0</text>
</g>
<g clip-path="url(#clip471)">
<text style="fill:#000000; fill-opacity:1; font-family:Arial,Helvetica Neue,Helvetica,sans-serif; font-size:60px; text-anchor:start;" transform="rotate(0, 653.799, 1647.23)" x="653.799" y="1647.23">0.2</text>
</g>
<g clip-path="url(#clip471)">
<text style="fill:#000000; fill-opacity:1; font-family:Arial,Helvetica Neue,Helvetica,sans-serif; font-size:60px; text-anchor:start;" transform="rotate(0, 1049.8, 1647.23)" x="1049.8" y="1647.23">0.4</text>
</g>
<g clip-path="url(#clip471)">
<text style="fill:#000000; fill-opacity:1; font-family:Arial,Helvetica Neue,Helvetica,sans-serif; font-size:60px; text-anchor:start;" transform="rotate(0, 1445.8, 1647.23)" x="1445.8" y="1647.23">0.6</text>
</g>
<g clip-path="url(#clip471)">
<text style="fill:#000000; fill-opacity:1; font-family:Arial,Helvetica Neue,Helvetica,sans-serif; font-size:60px; text-anchor:start;" transform="rotate(0, 1841.8, 1647.23)" x="1841.8" y="1647.23">0.8</text>
</g>
<g clip-path="url(#clip471)">
<text style="fill:#000000; fill-opacity:1; font-family:Arial,Helvetica Neue,Helvetica,sans-serif; font-size:60px; text-anchor:start;" transform="rotate(0, 2237.8, 1647.23)" x="2237.8" y="1647.23">1.0</text>
</g>
<g clip-path="url(#clip471)">
<text style="fill:#000000; fill-opacity:1; font-family:Arial,Helvetica Neue,Helvetica,sans-serif; font-size:60px; text-anchor:middle;" transform="rotate(0, 1290, 52.8)" x="1290" y="52.8">LogitNormal(0, 1)</text>
</g>
<g clip-path="url(#clip471)">
<text style="fill:#000000; fill-opacity:1; font-family:Arial,Helvetica Neue,Helvetica,sans-serif; font-size:60px; text-anchor:middle;" transform="rotate(0, 1290, 1769.4)" x="1290" y="1769.4">x</text>
</g>
<g clip-path="url(#clip471)">
<text style="fill:#000000; fill-opacity:1; font-family:Arial,Helvetica Neue,Helvetica,sans-serif; font-size:60px; text-anchor:middle;" transform="rotate(-90, 74.5986, 877.5)" x="74.5986" y="877.5">density</text>
</g>
<polyline clip-path="url(#clip470)" style="stroke:#00528a; stroke-linecap:round; stroke-linejoin:round; stroke-width:7.2; stroke-opacity:1; fill:none" points="300,1575 306.644,1574.99 313.289,1574.8 319.933,1574.06 326.577,1572.43 333.221,1569.68 339.866,1565.69 346.51,1560.42 353.154,1553.86 359.799,1546.08 366.443,1537.13 373.087,1527.08 379.732,1516.03 386.376,1504.05 393.02,1491.23 399.664,1477.66 406.309,1463.4 412.953,1448.54 419.597,1433.14 426.242,1417.27 432.886,1400.99 439.53,1384.35 446.174,1367.4 452.819,1350.19 459.463,1332.76 466.107,1315.16 472.752,1297.41 479.396,1279.56 486.04,1261.63 492.685,1243.64 499.329,1225.63 505.973,1207.62 512.617,1189.63 519.262,1171.67 525.906,1153.77 532.55,1135.94 539.195,1118.19 545.839,1100.54 552.483,1083 559.128,1065.58 565.772,1048.29 572.416,1031.13 579.06,1014.12 585.705,997.263 592.349,980.564 598.993,964.029 605.638,947.663 612.282,931.469 618.926,915.453 625.57,899.617 632.215,883.964 638.859,868.496 645.503,853.217 652.148,838.127 658.792,823.228 665.436,808.522 672.081,794.009 678.725,779.691 685.369,765.567 692.013,751.638 698.658,737.904 705.302,724.365 711.946,711.021 718.591,697.872 725.235,684.917 731.879,672.156 738.523,659.588 745.168,647.213 751.812,635.029 758.456,623.036 765.101,611.233 771.745,599.619 778.389,588.192 785.034,576.952 791.678,565.899 798.322,555.029 804.966,544.343 811.611,533.839 818.255,523.516 824.899,513.372 831.544,503.407 838.188,493.619 844.832,484.007 851.477,474.57 858.121,465.305 864.765,456.213 871.409,447.291 878.054,438.539 884.698,429.955 891.342,421.537 897.987,413.285 904.631,405.198 911.275,397.274 917.919,389.511 924.564,381.909 931.208,374.467 937.852,367.182 944.497,360.055 951.141,353.084 957.785,346.267 964.43,339.604 971.074,333.094 977.718,326.735 984.362,320.526 991.007,314.467 997.651,308.556 1004.3,302.793 1010.94,297.176 1017.58,291.704 1024.23,286.376 1030.87,281.192 1037.52,276.151 1044.16,271.252 1050.81,266.493 1057.45,261.874 1064.09,257.395 1070.74,253.054 1077.38,248.851 1084.03,244.785 1090.67,240.855 1097.32,237.06 1103.96,233.401 1110.6,229.875 1117.25,226.484 1123.89,223.225 1130.54,220.099 1137.18,217.104 1143.83,214.241 1150.47,211.509 1157.11,208.907 1163.76,206.435 1170.4,204.092 1177.05,201.879 1183.69,199.794 1190.34,197.837 1196.98,196.008 1203.62,194.307 1210.27,192.733 1216.91,191.286 1223.56,189.965 1230.2,188.771 1236.85,187.703 1243.49,186.762 1250.13,185.946 1256.78,185.256 1263.42,184.692 1270.07,184.253 1276.71,183.939 1283.36,183.751 1290,183.689 1296.64,183.751 1303.29,183.939 1309.93,184.253 1316.58,184.692 1323.22,185.256 1329.87,185.946 1336.51,186.762 1343.15,187.703 1349.8,188.771 1356.44,189.965 1363.09,191.286 1369.73,192.733 1376.38,194.307 1383.02,196.008 1389.66,197.837 1396.31,199.794 1402.95,201.879 1409.6,204.092 1416.24,206.435 1422.89,208.907 1429.53,211.509 1436.17,214.241 1442.82,217.104 1449.46,220.099 1456.11,223.225 1462.75,226.484 1469.4,229.875 1476.04,233.401 1482.68,237.06 1489.33,240.855 1495.97,244.785 1502.62,248.851 1509.26,253.054 1515.91,257.395 1522.55,261.874 1529.19,266.493 1535.84,271.252 1542.48,276.151 1549.13,281.192 1555.77,286.376 1562.42,291.704 1569.06,297.176 1575.7,302.793 1582.35,308.556 1588.99,314.467 1595.64,320.526 1602.28,326.735 1608.93,333.094 1615.57,339.604 1622.21,346.267 1628.86,353.084 1635.5,360.055 1642.15,367.182 1648.79,374.467 1655.44,381.909 1662.08,389.511 1668.72,397.274 1675.37,405.198 1682.01,413.285 1688.66,421.537 1695.3,429.955 1701.95,438.539 1708.59,447.291 1715.23,456.213 1721.88,465.305 1728.52,474.57 1735.17,484.007 1741.81,493.619 1748.46,503.407 1755.1,513.372 1761.74,523.516 1768.39,533.839 1775.03,544.343 1781.68,555.029 1788.32,565.899 1794.97,576.952 1801.61,588.192 1808.26,599.619 1814.9,611.233 1821.54,623.036 1828.19,635.029 1834.83,647.213 1841.48,659.588 1848.12,672.156 1854.77,684.917 1861.41,697.872 1868.05,711.021 1874.7,724.365 1881.34,737.904 1887.99,751.638 1894.63,765.567 1901.28,779.691 1907.92,794.009 1914.56,808.522 1921.21,823.228 1927.85,838.127 1934.5,853.217 1941.14,868.496 1947.79,883.964 1954.43,899.617 1961.07,915.453 1967.72,931.469 1974.36,947.663 1981.01,964.029 1987.65,980.564 1994.3,997.263 2000.94,1014.12 2007.58,1031.13 2014.23,1048.29 2020.87,1065.58 2027.52,1083 2034.16,1100.54 2040.81,1118.19 2047.45,1135.94 2054.09,1153.77 2060.74,1171.67 2067.38,1189.63 2074.03,1207.62 2080.67,1225.63 2087.32,1243.64 2093.96,1261.63 2100.6,1279.56 2107.25,1297.41 2113.89,1315.16 2120.54,1332.76 2127.18,1350.19 2133.83,1367.4 2140.47,1384.35 2147.11,1400.99 2153.76,1417.27 2160.4,1433.14 2167.05,1448.54 2173.69,1463.4 2180.34,1477.66 2186.98,1491.23 2193.62,1504.05 2200.27,1516.03 2206.91,1527.08 2213.56,1537.13 2220.2,1546.08 2226.85,1553.86 2233.49,1560.42 2240.13,1565.69 2246.78,1569.68 2253.42,1572.43 2260.07,1574.06 2266.71,1574.8 2273.36,1574.99 2280,1575 "/>
</svg>
