<?xml version="1.0" encoding="utf-8"?>
<svg xmlns="http://www.w3.org/2000/svg" xmlns:xlink="http://www.w3.org/1999/xlink" width="600" height="450" viewBox="0 0 2400 1800">
<defs>
  <clipPath id="clip240">
    <rect x="300" y="180" width="1981" height="1396"/>
  </clipPath>
</defs>
<defs>
  <clipPath id="clip241">
    <rect x="0" y="0" width="2400" height="1800"/>
  </clipPath>
</defs>
<path clip-path="url(#clip241)" d="M0 1800 L2400 1800 L2400 -1400 L0 -1400  Z" fill="#ffffff" fill-rule="evenodd" fill-opacity="1"/>
<polyline clip-path="url(#clip241)" style="stroke:#000000; stroke-linecap:round; stroke-linejoin:round; stroke-width:3.6; stroke-opacity:1; fill:none" points="2280,1575 2243.67,1575 "/>
<polyline clip-path="url(#clip241)" style="stroke:#000000; stroke-linecap:round; stroke-linejoin:round; stroke-width:3.6; stroke-opacity:1; fill:none" points="2280,1296 2243.67,1296 "/>
<polyline clip-path="url(#clip241)" style="stroke:#000000; stroke-linecap:round; stroke-linejoin:round; stroke-width:3.6; stroke-opacity:1; fill:none" points="2280,1017 2243.67,1017 "/>
<polyline clip-path="url(#clip241)" style="stroke:#000000; stroke-linecap:round; stroke-linejoin:round; stroke-width:3.6; stroke-opacity:1; fill:none" points="2280,738 2243.67,738 "/>
<polyline clip-path="url(#clip241)" style="stroke:#000000; stroke-linecap:round; stroke-linejoin:round; stroke-width:3.6; stroke-opacity:1; fill:none" points="2280,459 2243.67,459 "/>
<polyline clip-path="url(#clip241)" style="stroke:#000000; stroke-linecap:round; stroke-linejoin:round; stroke-width:3.6; stroke-opacity:1; fill:none" points="2280,180 2243.67,180 "/>
<polyline clip-path="url(#clip241)" style="stroke:#000000; stroke-linecap:round; stroke-linejoin:round; stroke-width:3.6; stroke-opacity:1; fill:none" points="300,1575 336.331,1575 "/>
<polyline clip-path="url(#clip241)" style="stroke:#000000; stroke-linecap:round; stroke-linejoin:round; stroke-width:3.6; stroke-opacity:1; fill:none" points="300,1296 336.331,1296 "/>
<polyline clip-path="url(#clip241)" style="stroke:#000000; stroke-linecap:round; stroke-linejoin:round; stroke-width:3.6; stroke-opacity:1; fill:none" points="300,1017 336.331,1017 "/>
<polyline clip-path="url(#clip241)" style="stroke:#000000; stroke-linecap:round; stroke-linejoin:round; stroke-width:3.6; stroke-opacity:1; fill:none" points="300,738 336.331,738 "/>
<polyline clip-path="url(#clip241)" style="stroke:#000000; stroke-linecap:round; stroke-linejoin:round; stroke-width:3.6; stroke-opacity:1; fill:none" points="300,459 336.331,459 "/>
<polyline clip-path="url(#clip241)" style="stroke:#000000; stroke-linecap:round; stroke-linejoin:round; stroke-width:3.6; stroke-opacity:1; fill:none" points="300,180 336.331,180 "/>
<polyline clip-path="url(#clip241)" style="stroke:#000000; stroke-linecap:round; stroke-linejoin:round; stroke-width:3.6; stroke-opacity:1; fill:none" points="300,180 300,216.331 "/>
<polyline clip-path="url(#clip241)" style="stroke:#000000; stroke-linecap:round; stroke-linejoin:round; stroke-width:3.6; stroke-opacity:1; fill:none" points="696,180 696,216.331 "/>
<polyline clip-path="url(#clip241)" style="stroke:#000000; stroke-linecap:round; stroke-linejoin:round; stroke-width:3.6; stroke-opacity:1; fill:none" points="1092,180 1092,216.331 "/>
<polyline clip-path="url(#clip241)" style="stroke:#000000; stroke-linecap:round; stroke-linejoin:round; stroke-width:3.6; stroke-opacity:1; fill:none" points="1488,180 1488,216.331 "/>
<polyline clip-path="url(#clip241)" style="stroke:#000000; stroke-linecap:round; stroke-linejoin:round; stroke-width:3.6; stroke-opacity:1; fill:none" points="1884,180 1884,216.331 "/>
<polyline clip-path="url(#clip241)" style="stroke:#000000; stroke-linecap:round; stroke-linejoin:round; stroke-width:3.6; stroke-opacity:1; fill:none" points="2280,180 2280,216.331 "/>
<polyline clip-path="url(#clip241)" style="stroke:#000000; stroke-linecap:round; stroke-linejoin:round; stroke-width:3.6; stroke-opacity:1; fill:none" points="300,1575 300,1538.67 "/>
<polyline clip-path="url(#clip241)" style="stroke:#000000; stroke-linecap:round; stroke-linejoin:round; stroke-width:3.6; stroke-opacity:1; fill:none" points="696,1575 696,1538.67 "/>
<polyline clip-path="url(#clip241)" style="stroke:#000000; stroke-linecap:round; stroke-linejoin:round; stroke-width:3.6; stroke-opacity:1; fill:none" points="1092,1575 1092,1538.67 "/>
<polyline clip-path="url(#clip241)" style="stroke:#000000; stroke-linecap:round; stroke-linejoin:round; stroke-width:3.6; stroke-opacity:1; fill:none" points="1488,1575 1488,1538.67 "/>
<polyline clip-path="url(#clip241)" style="stroke:#000000; stroke-linecap:round; stroke-linejoin:round; stroke-width:3.6; stroke-opacity:1; fill:none" points="1884,1575 1884,1538.67 "/>
<polyline clip-path="url(#clip241)" style="stroke:#000000; stroke-linecap:round; stroke-linejoin:round; stroke-width:3.6; stroke-opacity:1; fill:none" points="2280,1575 2280,1538.67 "/>
<polyline clip-path="url(#clip241)" style="stroke:#000000; stroke-linecap:round; stroke-linejoin:round; stroke-width:3.6; stroke-opacity:1; fill:none" points="2280,1519.2 2261.83,1519.2 "/>
<polyline clip-path="url(#clip241)" style="stroke:#000000; stroke-linecap:round; stroke-linejoin:round; stroke-width:3.6; stroke-opacity:1; fill:none" points="2280,1463.4 2261.83,1463.4 "/>
<polyline clip-path="url(#clip241)" style="stroke:#000000; stroke-linecap:round; stroke-linejoin:round; stroke-width:3.6; stroke-opacity:1; fill:none" points="2280,1407.6 2261.83,1407.6 "/>
<polyline clip-path="url(#clip241)" style="stroke:#000000; stroke-linecap:round; stroke-linejoin:round; stroke-width:3.6; stroke-opacity:1; fill:none" points="2280,1351.8 2261.83,1351.8 "/>
<polyline clip-path="url(#clip241)" style="stroke:#000000; stroke-linecap:round; stroke-linejoin:round; stroke-width:3.6; stroke-opacity:1; fill:none" points="2280,1240.2 2261.83,1240.2 "/>
<polyline clip-path="url(#clip241)" style="stroke:#000000; stroke-linecap:round; stroke-linejoin:round; stroke-width:3.6; stroke-opacity:1; fill:none" points="2280,1184.4 2261.83,1184.4 "/>
<polyline clip-path="url(#clip241)" style="stroke:#000000; stroke-linecap:round; stroke-linejoin:round; stroke-width:3.6; stroke-opacity:1; fill:none" points="2280,1128.6 2261.83,1128.6 "/>
<polyline clip-path="url(#clip241)" style="stroke:#000000; stroke-linecap:round; stroke-linejoin:round; stroke-width:3.6; stroke-opacity:1; fill:none" points="2280,1072.8 2261.83,1072.8 "/>
<polyline clip-path="url(#clip241)" style="stroke:#000000; stroke-linecap:round; stroke-linejoin:round; stroke-width:3.6; stroke-opacity:1; fill:none" points="2280,961.2 2261.83,961.2 "/>
<polyline clip-path="url(#clip241)" style="stroke:#000000; stroke-linecap:round; stroke-linejoin:round; stroke-width:3.6; stroke-opacity:1; fill:none" points="2280,905.4 2261.83,905.4 "/>
<polyline clip-path="url(#clip241)" style="stroke:#000000; stroke-linecap:round; stroke-linejoin:round; stroke-width:3.6; stroke-opacity:1; fill:none" points="2280,849.6 2261.83,849.6 "/>
<polyline clip-path="url(#clip241)" style="stroke:#000000; stroke-linecap:round; stroke-linejoin:round; stroke-width:3.6; stroke-opacity:1; fill:none" points="2280,793.8 2261.83,793.8 "/>
<polyline clip-path="url(#clip241)" style="stroke:#000000; stroke-linecap:round; stroke-linejoin:round; stroke-width:3.6; stroke-opacity:1; fill:none" points="2280,682.2 2261.83,682.2 "/>
<polyline clip-path="url(#clip241)" style="stroke:#000000; stroke-linecap:round; stroke-linejoin:round; stroke-width:3.6; stroke-opacity:1; fill:none" points="2280,626.4 2261.83,626.4 "/>
<polyline clip-path="url(#clip241)" style="stroke:#000000; stroke-linecap:round; stroke-linejoin:round; stroke-width:3.6; stroke-opacity:1; fill:none" points="2280,570.6 2261.83,570.6 "/>
<polyline clip-path="url(#clip241)" style="stroke:#000000; stroke-linecap:round; stroke-linejoin:round; stroke-width:3.6; stroke-opacity:1; fill:none" points="2280,514.8 2261.83,514.8 "/>
<polyline clip-path="url(#clip241)" style="stroke:#000000; stroke-linecap:round; stroke-linejoin:round; stroke-width:3.6; stroke-opacity:1; fill:none" points="2280,403.2 2261.83,403.2 "/>
<polyline clip-path="url(#clip241)" style="stroke:#000000; stroke-linecap:round; stroke-linejoin:round; stroke-width:3.6; stroke-opacity:1; fill:none" points="2280,347.4 2261.83,347.4 "/>
<polyline clip-path="url(#clip241)" style="stroke:#000000; stroke-linecap:round; stroke-linejoin:round; stroke-width:3.6; stroke-opacity:1; fill:none" points="2280,291.6 2261.83,291.6 "/>
<polyline clip-path="url(#clip241)" style="stroke:#000000; stroke-linecap:round; stroke-linejoin:round; stroke-width:3.6; stroke-opacity:1; fill:none" points="2280,235.8 2261.83,235.8 "/>
<polyline clip-path="url(#clip241)" style="stroke:#000000; stroke-linecap:round; stroke-linejoin:round; stroke-width:3.6; stroke-opacity:1; fill:none" points="300,1519.2 318.166,1519.2 "/>
<polyline clip-path="url(#clip241)" style="stroke:#000000; stroke-linecap:round; stroke-linejoin:round; stroke-width:3.6; stroke-opacity:1; fill:none" points="300,1463.4 318.166,1463.4 "/>
<polyline clip-path="url(#clip241)" style="stroke:#000000; stroke-linecap:round; stroke-linejoin:round; stroke-width:3.6; stroke-opacity:1; fill:none" points="300,1407.6 318.166,1407.6 "/>
<polyline clip-path="url(#clip241)" style="stroke:#000000; stroke-linecap:round; stroke-linejoin:round; stroke-width:3.6; stroke-opacity:1; fill:none" points="300,1351.8 318.166,1351.8 "/>
<polyline clip-path="url(#clip241)" style="stroke:#000000; stroke-linecap:round; stroke-linejoin:round; stroke-width:3.6; stroke-opacity:1; fill:none" points="300,1240.2 318.166,1240.2 "/>
<polyline clip-path="url(#clip241)" style="stroke:#000000; stroke-linecap:round; stroke-linejoin:round; stroke-width:3.6; stroke-opacity:1; fill:none" points="300,1184.4 318.166,1184.4 "/>
<polyline clip-path="url(#clip241)" style="stroke:#000000; stroke-linecap:round; stroke-linejoin:round; stroke-width:3.6; stroke-opacity:1; fill:none" points="300,1128.6 318.166,1128.6 "/>
<polyline clip-path="url(#clip241)" style="stroke:#000000; stroke-linecap:round; stroke-linejoin:round; stroke-width:3.6; stroke-opacity:1; fill:none" points="300,1072.8 318.166,1072.8 "/>
<polyline clip-path="url(#clip241)" style="stroke:#000000; stroke-linecap:round; stroke-linejoin:round; stroke-width:3.6; stroke-opacity:1; fill:none" points="300,961.2 318.166,961.2 "/>
<polyline clip-path="url(#clip241)" style="stroke:#000000; stroke-linecap:round; stroke-linejoin:round; stroke-width:3.6; stroke-opacity:1; fill:none" points="300,905.4 318.166,905.4 "/>
<polyline clip-path="url(#clip241)" style="stroke:#000000; stroke-linecap:round; stroke-linejoin:round; stroke-width:3.6; stroke-opacity:1; fill:none" points="300,849.6 318.166,849.6 "/>
<polyline clip-path="url(#clip241)" style="stroke:#000000; stroke-linecap:round; stroke-linejoin:round; stroke-width:3.6; stroke-opacity:1; fill:none" points="300,793.8 318.166,793.8 "/>
<polyline clip-path="url(#clip241)" style="stroke:#000000; stroke-linecap:round; stroke-linejoin:round; stroke-width:3.6; stroke-opacity:1; fill:none" points="300,682.2 318.166,682.2 "/>
<polyline clip-path="url(#clip241)" style="stroke:#000000; stroke-linecap:round; stroke-linejoin:round; stroke-width:3.6; stroke-opacity:1; fill:none" points="300,626.4 318.166,626.4 "/>
<polyline clip-path="url(#clip241)" style="stroke:#000000; stroke-linecap:round; stroke-linejoin:round; stroke-width:3.6; stroke-opacity:1; fill:none" points="300,570.6 318.166,570.6 "/>
<polyline clip-path="url(#clip241)" style="stroke:#000000; stroke-linecap:round; stroke-linejoin:round; stroke-width:3.6; stroke-opacity:1; fill:none" points="300,514.8 318.166,514.8 "/>
<polyline clip-path="url(#clip241)" style="stroke:#000000; stroke-linecap:round; stroke-linejoin:round; stroke-width:3.6; stroke-opacity:1; fill:none" points="300,403.2 318.166,403.2 "/>
<polyline clip-path="url(#clip241)" style="stroke:#000000; stroke-linecap:round; stroke-linejoin:round; stroke-width:3.6; stroke-opacity:1; fill:none" points="300,347.4 318.166,347.4 "/>
<polyline clip-path="url(#clip241)" style="stroke:#000000; stroke-linecap:round; stroke-linejoin:round; stroke-width:3.6; stroke-opacity:1; fill:none" points="300,291.6 318.166,291.6 "/>
<polyline clip-path="url(#clip241)" style="stroke:#000000; stroke-linecap:round; stroke-linejoin:round; stroke-width:3.6; stroke-opacity:1; fill:none" points="300,235.8 318.166,235.8 "/>
<polyline clip-path="url(#clip241)" style="stroke:#000000; stroke-linecap:round; stroke-linejoin:round; stroke-width:3.6; stroke-opacity:1; fill:none" points="379.2,180 379.2,198.166 "/>
<polyline clip-path="url(#clip241)" style="stroke:#000000; stroke-linecap:round; stroke-linejoin:round; stroke-width:3.6; stroke-opacity:1; fill:none" points="458.4,180 458.4,198.166 "/>
<polyline clip-path="url(#clip241)" style="stroke:#000000; stroke-linecap:round; stroke-linejoin:round; stroke-width:3.6; stroke-opacity:1; fill:none" points="537.6,180 537.6,198.166 "/>
<polyline clip-path="url(#clip241)" style="stroke:#000000; stroke-linecap:round; stroke-linejoin:round; stroke-width:3.6; stroke-opacity:1; fill:none" points="616.8,180 616.8,198.166 "/>
<polyline clip-path="url(#clip241)" style="stroke:#000000; stroke-linecap:round; stroke-linejoin:round; stroke-width:3.6; stroke-opacity:1; fill:none" points="775.2,180 775.2,198.166 "/>
<polyline clip-path="url(#clip241)" style="stroke:#000000; stroke-linecap:round; stroke-linejoin:round; stroke-width:3.6; stroke-opacity:1; fill:none" points="854.4,180 854.4,198.166 "/>
<polyline clip-path="url(#clip241)" style="stroke:#000000; stroke-linecap:round; stroke-linejoin:round; stroke-width:3.6; stroke-opacity:1; fill:none" points="933.6,180 933.6,198.166 "/>
<polyline clip-path="url(#clip241)" style="stroke:#000000; stroke-linecap:round; stroke-linejoin:round; stroke-width:3.6; stroke-opacity:1; fill:none" points="1012.8,180 1012.8,198.166 "/>
<polyline clip-path="url(#clip241)" style="stroke:#000000; stroke-linecap:round; stroke-linejoin:round; stroke-width:3.6; stroke-opacity:1; fill:none" points="1171.2,180 1171.2,198.166 "/>
<polyline clip-path="url(#clip241)" style="stroke:#000000; stroke-linecap:round; stroke-linejoin:round; stroke-width:3.6; stroke-opacity:1; fill:none" points="1250.4,180 1250.4,198.166 "/>
<polyline clip-path="url(#clip241)" style="stroke:#000000; stroke-linecap:round; stroke-linejoin:round; stroke-width:3.6; stroke-opacity:1; fill:none" points="1329.6,180 1329.6,198.166 "/>
<polyline clip-path="url(#clip241)" style="stroke:#000000; stroke-linecap:round; stroke-linejoin:round; stroke-width:3.6; stroke-opacity:1; fill:none" points="1408.8,180 1408.8,198.166 "/>
<polyline clip-path="url(#clip241)" style="stroke:#000000; stroke-linecap:round; stroke-linejoin:round; stroke-width:3.6; stroke-opacity:1; fill:none" points="1567.2,180 1567.2,198.166 "/>
<polyline clip-path="url(#clip241)" style="stroke:#000000; stroke-linecap:round; stroke-linejoin:round; stroke-width:3.6; stroke-opacity:1; fill:none" points="1646.4,180 1646.4,198.166 "/>
<polyline clip-path="url(#clip241)" style="stroke:#000000; stroke-linecap:round; stroke-linejoin:round; stroke-width:3.6; stroke-opacity:1; fill:none" points="1725.6,180 1725.6,198.166 "/>
<polyline clip-path="url(#clip241)" style="stroke:#000000; stroke-linecap:round; stroke-linejoin:round; stroke-width:3.6; stroke-opacity:1; fill:none" points="1804.8,180 1804.8,198.166 "/>
<polyline clip-path="url(#clip241)" style="stroke:#000000; stroke-linecap:round; stroke-linejoin:round; stroke-width:3.6; stroke-opacity:1; fill:none" points="1963.2,180 1963.2,198.166 "/>
<polyline clip-path="url(#clip241)" style="stroke:#000000; stroke-linecap:round; stroke-linejoin:round; stroke-width:3.6; stroke-opacity:1; fill:none" points="2042.4,180 2042.4,198.166 "/>
<polyline clip-path="url(#clip241)" style="stroke:#000000; stroke-linecap:round; stroke-linejoin:round; stroke-width:3.6; stroke-opacity:1; fill:none" points="2121.6,180 2121.6,198.166 "/>
<polyline clip-path="url(#clip241)" style="stroke:#000000; stroke-linecap:round; stroke-linejoin:round; stroke-width:3.6; stroke-opacity:1; fill:none" points="2200.8,180 2200.8,198.166 "/>
<polyline clip-path="url(#clip241)" style="stroke:#000000; stroke-linecap:round; stroke-linejoin:round; stroke-width:3.6; stroke-opacity:1; fill:none" points="379.2,1575 379.2,1556.83 "/>
<polyline clip-path="url(#clip241)" style="stroke:#000000; stroke-linecap:round; stroke-linejoin:round; stroke-width:3.6; stroke-opacity:1; fill:none" points="458.4,1575 458.4,1556.83 "/>
<polyline clip-path="url(#clip241)" style="stroke:#000000; stroke-linecap:round; stroke-linejoin:round; stroke-width:3.6; stroke-opacity:1; fill:none" points="537.6,1575 537.6,1556.83 "/>
<polyline clip-path="url(#clip241)" style="stroke:#000000; stroke-linecap:round; stroke-linejoin:round; stroke-width:3.6; stroke-opacity:1; fill:none" points="616.8,1575 616.8,1556.83 "/>
<polyline clip-path="url(#clip241)" style="stroke:#000000; stroke-linecap:round; stroke-linejoin:round; stroke-width:3.6; stroke-opacity:1; fill:none" points="775.2,1575 775.2,1556.83 "/>
<polyline clip-path="url(#clip241)" style="stroke:#000000; stroke-linecap:round; stroke-linejoin:round; stroke-width:3.6; stroke-opacity:1; fill:none" points="854.4,1575 854.4,1556.83 "/>
<polyline clip-path="url(#clip241)" style="stroke:#000000; stroke-linecap:round; stroke-linejoin:round; stroke-width:3.6; stroke-opacity:1; fill:none" points="933.6,1575 933.6,1556.83 "/>
<polyline clip-path="url(#clip241)" style="stroke:#000000; stroke-linecap:round; stroke-linejoin:round; stroke-width:3.6; stroke-opacity:1; fill:none" points="1012.8,1575 1012.8,1556.83 "/>
<polyline clip-path="url(#clip241)" style="stroke:#000000; stroke-linecap:round; stroke-linejoin:round; stroke-width:3.6; stroke-opacity:1; fill:none" points="1171.2,1575 1171.2,1556.83 "/>
<polyline clip-path="url(#clip241)" style="stroke:#000000; stroke-linecap:round; stroke-linejoin:round; stroke-width:3.6; stroke-opacity:1; fill:none" points="1250.4,1575 1250.4,1556.83 "/>
<polyline clip-path="url(#clip241)" style="stroke:#000000; stroke-linecap:round; stroke-linejoin:round; stroke-width:3.6; stroke-opacity:1; fill:none" points="1329.6,1575 1329.6,1556.83 "/>
<polyline clip-path="url(#clip241)" style="stroke:#000000; stroke-linecap:round; stroke-linejoin:round; stroke-width:3.6; stroke-opacity:1; fill:none" points="1408.8,1575 1408.8,1556.83 "/>
<polyline clip-path="url(#clip241)" style="stroke:#000000; stroke-linecap:round; stroke-linejoin:round; stroke-width:3.6; stroke-opacity:1; fill:none" points="1567.2,1575 1567.2,1556.83 "/>
<polyline clip-path="url(#clip241)" style="stroke:#000000; stroke-linecap:round; stroke-linejoin:round; stroke-width:3.6; stroke-opacity:1; fill:none" points="1646.4,1575 1646.4,1556.83 "/>
<polyline clip-path="url(#clip241)" style="stroke:#000000; stroke-linecap:round; stroke-linejoin:round; stroke-width:3.6; stroke-opacity:1; fill:none" points="1725.6,1575 1725.6,1556.83 "/>
<polyline clip-path="url(#clip241)" style="stroke:#000000; stroke-linecap:round; stroke-linejoin:round; stroke-width:3.6; stroke-opacity:1; fill:none" points="1804.8,1575 1804.8,1556.83 "/>
<polyline clip-path="url(#clip241)" style="stroke:#000000; stroke-linecap:round; stroke-linejoin:round; stroke-width:3.6; stroke-opacity:1; fill:none" points="1963.2,1575 1963.2,1556.83 "/>
<polyline clip-path="url(#clip241)" style="stroke:#000000; stroke-linecap:round; stroke-linejoin:round; stroke-width:3.6; stroke-opacity:1; fill:none" points="2042.4,1575 2042.4,1556.83 "/>
<polyline clip-path="url(#clip241)" style="stroke:#000000; stroke-linecap:round; stroke-linejoin:round; stroke-width:3.6; stroke-opacity:1; fill:none" points="2121.6,1575 2121.6,1556.83 "/>
<polyline clip-path="url(#clip241)" style="stroke:#000000; stroke-linecap:round; stroke-linejoin:round; stroke-width:3.6; stroke-opacity:1; fill:none" points="2200.8,1575 2200.8,1556.83 "/>
<polyline clip-path="url(#clip241)" style="stroke:#000000; stroke-linecap:round; stroke-linejoin:round; stroke-width:3.6; stroke-opacity:1; fill:none" points="2280,1575 2280,180 "/>
<polyline clip-path="url(#clip241)" style="stroke:#000000; stroke-linecap:round; stroke-linejoin:round; stroke-width:3.6; stroke-opacity:1; fill:none" points="300,1575 300,180 "/>
<polyline clip-path="url(#clip241)" style="stroke:#000000; stroke-linecap:round; stroke-linejoin:round; stroke-width:3.6; stroke-opacity:1; fill:none" points="300,180 2280,180 "/>
<polyline clip-path="url(#clip241)" style="stroke:#000000; stroke-linecap:round; stroke-linejoin:round; stroke-width:3.6; stroke-opacity:1; fill:none" points="300,1575 2280,1575 "/>
<g clip-path="url(#clip241)">
<text style="fill:#000000; fill-opacity:1; font-family:Arial,Helvetica Neue,Helvetica,sans-serif; font-size:60px; text-anchor:start;" transform="rotate(0, 248.074, 1592.22)" x="248.074" y="1592.22">0</text>
</g>
<g clip-path="url(#clip241)">
<text style="fill:#000000; fill-opacity:1; font-family:Arial,Helvetica Neue,Helvetica,sans-serif; font-size:60px; text-anchor:start;" transform="rotate(0, 197.433, 1313.22)" x="197.433" y="1313.22">0.1</text>
</g>
<g clip-path="url(#clip241)">
<text style="fill:#000000; fill-opacity:1; font-family:Arial,Helvetica Neue,Helvetica,sans-serif; font-size:60px; text-anchor:start;" transform="rotate(0, 197.433, 1034.22)" x="197.433" y="1034.22">0.2</text>
</g>
<g clip-path="url(#clip241)">
<text style="fill:#000000; fill-opacity:1; font-family:Arial,Helvetica Neue,Helvetica,sans-serif; font-size:60px; text-anchor:start;" transform="rotate(0, 197.433, 755.221)" x="197.433" y="755.221">0.3</text>
</g>
<g clip-path="url(#clip241)">
<text style="fill:#000000; fill-opacity:1; font-family:Arial,Helvetica Neue,Helvetica,sans-serif; font-size:60px; text-anchor:start;" transform="rotate(0, 197.433, 476.221)" x="197.433" y="476.221">0.4</text>
</g>
<g clip-path="url(#clip241)">
<text style="fill:#000000; fill-opacity:1; font-family:Arial,Helvetica Neue,Helvetica,sans-serif; font-size:60px; text-anchor:start;" transform="rotate(0, 197.433, 197.221)" x="197.433" y="197.221">0.5</text>
</g>
<g clip-path="url(#clip241)">
<text style="fill:#000000; fill-opacity:1; font-family:Arial,Helvetica Neue,Helvetica,sans-serif; font-size:60px; text-anchor:start;" transform="rotate(0, 283.12, 1647.23)" x="283.12" y="1647.23">0</text>
</g>
<g clip-path="url(#clip241)">
<text style="fill:#000000; fill-opacity:1; font-family:Arial,Helvetica Neue,Helvetica,sans-serif; font-size:60px; text-anchor:start;" transform="rotate(0, 679.12, 1647.23)" x="679.12" y="1647.23">2</text>
</g>
<g clip-path="url(#clip241)">
<text style="fill:#000000; fill-opacity:1; font-family:Arial,Helvetica Neue,Helvetica,sans-serif; font-size:60px; text-anchor:start;" transform="rotate(0, 1075.12, 1647.23)" x="1075.12" y="1647.23">4</text>
</g>
<g clip-path="url(#clip241)">
<text style="fill:#000000; fill-opacity:1; font-family:Arial,Helvetica Neue,Helvetica,sans-serif; font-size:60px; text-anchor:start;" transform="rotate(0, 1471.12, 1647.23)" x="1471.12" y="1647.23">6</text>
</g>
<g clip-path="url(#clip241)">
<text style="fill:#000000; fill-opacity:1; font-family:Arial,Helvetica Neue,Helvetica,sans-serif; font-size:60px; text-anchor:start;" transform="rotate(0, 1867.12, 1647.23)" x="1867.12" y="1647.23">8</text>
</g>
<g clip-path="url(#clip241)">
<text style="fill:#000000; fill-opacity:1; font-family:Arial,Helvetica Neue,Helvetica,sans-serif; font-size:60px; text-anchor:start;" transform="rotate(0, 2246.24, 1647.23)" x="2246.24" y="1647.23">10</text>
</g>
<g clip-path="url(#clip241)">
<text style="fill:#000000; fill-opacity:1; font-family:Arial,Helvetica Neue,Helvetica,sans-serif; font-size:60px; text-anchor:middle;" transform="rotate(0, 1290, 52.8)" x="1290" y="52.8">FDist(10, 1)</text>
</g>
<g clip-path="url(#clip241)">
<text style="fill:#000000; fill-opacity:1; font-family:Arial,Helvetica Neue,Helvetica,sans-serif; font-size:60px; text-anchor:middle;" transform="rotate(0, 1290, 1769.4)" x="1290" y="1769.4">x</text>
</g>
<g clip-path="url(#clip241)">
<text style="fill:#000000; fill-opacity:1; font-family:Arial,Helvetica Neue,Helvetica,sans-serif; font-size:60px; text-anchor:middle;" transform="rotate(-90, 74.5986, 877.5)" x="74.5986" y="877.5">density</text>
</g>
<polyline clip-path="url(#clip240)" style="stroke:#00528a; stroke-linecap:round; stroke-linejoin:round; stroke-width:7.2; stroke-opacity:1; fill:none" points="300,1575 306.644,1486.36 313.289,1161.61 319.933,810.059 326.577,542.157 333.221,367.566 339.866,267.07 346.51,219.269 353.154,207.125 359.799,218.385 366.443,244.581 373.087,279.968 379.732,320.678 386.376,364.122 393.02,408.582 399.664,452.927 406.309,496.426 412.953,538.618 419.597,579.23 426.242,618.112 432.886,655.199 439.53,690.484 446.174,723.996 452.819,755.79 459.463,785.934 466.107,814.504 472.752,841.582 479.396,867.249 486.04,891.587 492.685,914.672 499.329,936.581 505.973,957.386 512.617,977.153 519.262,995.947 525.906,1013.83 532.55,1030.85 539.195,1047.07 545.839,1062.53 552.483,1077.28 559.128,1091.36 565.772,1104.81 572.416,1117.67 579.06,1129.97 585.705,1141.74 592.349,1153.02 598.993,1163.83 605.638,1174.2 612.282,1184.15 618.926,1193.7 625.57,1202.88 632.215,1211.7 638.859,1220.19 645.503,1228.35 652.148,1236.22 658.792,1243.79 665.436,1251.09 672.081,1258.13 678.725,1264.93 685.369,1271.48 692.013,1277.82 698.658,1283.94 705.302,1289.85 711.946,1295.57 718.591,1301.1 725.235,1306.45 731.879,1311.64 738.523,1316.66 745.168,1321.52 751.812,1326.24 758.456,1330.81 765.101,1335.24 771.745,1339.55 778.389,1343.72 785.034,1347.78 791.678,1351.72 798.322,1355.55 804.966,1359.27 811.611,1362.89 818.255,1366.41 824.899,1369.83 831.544,1373.16 838.188,1376.4 844.832,1379.56 851.477,1382.64 858.121,1385.63 864.765,1388.55 871.409,1391.39 878.054,1394.17 884.698,1396.87 891.342,1399.51 897.987,1402.09 904.631,1404.6 911.275,1407.05 917.919,1409.45 924.564,1411.79 931.208,1414.07 937.852,1416.3 944.497,1418.48 951.141,1420.61 957.785,1422.7 964.43,1424.73 971.074,1426.73 977.718,1428.68 984.362,1430.58 991.007,1432.45 997.651,1434.28 1004.3,1436.06 1010.94,1437.81 1017.58,1439.53 1024.23,1441.21 1030.87,1442.85 1037.52,1444.46 1044.16,1446.04 1050.81,1447.59 1057.45,1449.11 1064.09,1450.59 1070.74,1452.05 1077.38,1453.48 1084.03,1454.88 1090.67,1456.26 1097.32,1457.61 1103.96,1458.93 1110.6,1460.23 1117.25,1461.51 1123.89,1462.76 1130.54,1463.99 1137.18,1465.2 1143.83,1466.38 1150.47,1467.55 1157.11,1468.69 1163.76,1469.82 1170.4,1470.92 1177.05,1472.01 1183.69,1473.07 1190.34,1474.12 1196.98,1475.15 1203.62,1476.16 1210.27,1477.16 1216.91,1478.14 1223.56,1479.1 1230.2,1480.05 1236.85,1480.98 1243.49,1481.9 1250.13,1482.8 1256.78,1483.69 1263.42,1484.56 1270.07,1485.42 1276.71,1486.27 1283.36,1487.1 1290,1487.92 1296.64,1488.73 1303.29,1489.52 1309.93,1490.31 1316.58,1491.08 1323.22,1491.84 1329.87,1492.58 1336.51,1493.32 1343.15,1494.05 1349.8,1494.76 1356.44,1495.47 1363.09,1496.16 1369.73,1496.85 1376.38,1497.52 1383.02,1498.19 1389.66,1498.84 1396.31,1499.49 1402.95,1500.12 1409.6,1500.75 1416.24,1501.37 1422.89,1501.98 1429.53,1502.59 1436.17,1503.18 1442.82,1503.77 1449.46,1504.35 1456.11,1504.92 1462.75,1505.48 1469.4,1506.04 1476.04,1506.58 1482.68,1507.12 1489.33,1507.66 1495.97,1508.19 1502.62,1508.71 1509.26,1509.22 1515.91,1509.73 1522.55,1510.23 1529.19,1510.72 1535.84,1511.21 1542.48,1511.69 1549.13,1512.17 1555.77,1512.64 1562.42,1513.1 1569.06,1513.56 1575.7,1514.01 1582.35,1514.46 1588.99,1514.9 1595.64,1515.33 1602.28,1515.77 1608.93,1516.19 1615.57,1516.61 1622.21,1517.03 1628.86,1517.44 1635.5,1517.85 1642.15,1518.25 1648.79,1518.64 1655.44,1519.04 1662.08,1519.42 1668.72,1519.81 1675.37,1520.18 1682.01,1520.56 1688.66,1520.93 1695.3,1521.3 1701.95,1521.66 1708.59,1522.01 1715.23,1522.37 1721.88,1522.72 1728.52,1523.06 1735.17,1523.41 1741.81,1523.75 1748.46,1524.08 1755.1,1524.41 1761.74,1524.74 1768.39,1525.06 1775.03,1525.38 1781.68,1525.7 1788.32,1526.02 1794.97,1526.33 1801.61,1526.63 1808.26,1526.94 1814.9,1527.24 1821.54,1527.54 1828.19,1527.83 1834.83,1528.12 1841.48,1528.41 1848.12,1528.7 1854.77,1528.98 1861.41,1529.26 1868.05,1529.54 1874.7,1529.81 1881.34,1530.08 1887.99,1530.35 1894.63,1530.62 1901.28,1530.88 1907.92,1531.14 1914.56,1531.4 1921.21,1531.66 1927.85,1531.91 1934.5,1532.16 1941.14,1532.41 1947.79,1532.66 1954.43,1532.9 1961.07,1533.14 1967.72,1533.38 1974.36,1533.62 1981.01,1533.85 1987.65,1534.08 1994.3,1534.31 2000.94,1534.54 2007.58,1534.77 2014.23,1534.99 2020.87,1535.21 2027.52,1535.43 2034.16,1535.65 2040.81,1535.87 2047.45,1536.08 2054.09,1536.29 2060.74,1536.5 2067.38,1536.71 2074.03,1536.92 2080.67,1537.12 2087.32,1537.32 2093.96,1537.53 2100.6,1537.72 2107.25,1537.92 2113.89,1538.12 2120.54,1538.31 2127.18,1538.5 2133.83,1538.69 2140.47,1538.88 2147.11,1539.07 2153.76,1539.25 2160.4,1539.44 2167.05,1539.62 2173.69,1539.8 2180.34,1539.98 2186.98,1540.16 2193.62,1540.34 2200.27,1540.51 2206.91,1540.68 2213.56,1540.86 2220.2,1541.03 2226.85,1541.19 2233.49,1541.36 2240.13,1541.53 2246.78,1541.69 2253.42,1541.86 2260.07,1542.02 2266.71,1542.18 2273.36,1542.34 2280,1542.5 "/>
</svg>
